<?xml version="1.0" encoding="UTF-8" standalone="no"?>
<!DOCTYPE svg PUBLIC "-//W3C//DTD SVG 1.1//EN" "http://www.w3.org/Graphics/SVG/1.1/DTD/svg11.dtd">
<svg width="100%" height="100%" viewBox="0 0 124 147" version="1.1" xmlns="http://www.w3.org/2000/svg" xmlns:xlink="http://www.w3.org/1999/xlink" xml:space="preserve" xmlns:serif="http://www.serif.com/" style="fill-rule:evenodd;clip-rule:evenodd;stroke-linejoin:round;stroke-miterlimit:2;">
    <g transform="matrix(1,0,0,1,-330.278,-293.524)">
        <path d="M371.479,437.548C370.64,437.548 370.389,436.921 370.643,436.065L370.994,434.984L376.596,434.984L376.946,436.065C377.2,436.921 376.95,437.548 376.111,437.548L375.224,437.548L375.224,439.381L383.705,439.381L383.705,437.548L382.916,437.548C382.102,437.548 381.776,437.255 381.313,435.985L377.431,425.566L372.784,425.566L368.904,435.985C368.439,437.256 368.115,437.548 367.302,437.548L366.511,437.548L366.511,439.381L372.481,439.381L372.481,437.548L371.479,437.548ZM374.177,428.669L374.226,428.669L375.899,433.149L372.53,433.149L374.177,428.669Z" style="fill:white;"/>
        <path d="M443.654,432.483C443.654,437.004 440.763,439.797 435.65,439.797C430.539,439.797 427.648,437.003 427.648,432.483C427.648,427.96 430.539,425.147 435.65,425.147C440.764,425.147 443.654,427.96 443.654,432.483M431.83,432.483C431.83,436.129 433.33,437.859 435.65,437.859C437.972,437.859 439.474,436.129 439.474,432.483C439.474,428.836 437.972,427.085 435.65,427.085C433.33,427.085 431.83,428.836 431.83,432.483" style="fill:white;"/>
        <path d="M341.909,439.381L341.909,437.548L342.969,437.548C343.443,437.548 343.831,437.026 343.831,436.389L343.831,428.557C343.831,427.919 343.443,427.4 342.969,427.4L341.909,427.4L341.909,425.566L350.528,425.566C354.271,425.566 356.394,426.628 356.394,429.483C356.394,432.337 354.271,433.421 350.528,433.421L348.183,433.421L348.183,436.389C348.183,437.026 348.593,437.548 349.067,437.548L350.128,437.548L350.128,439.381L341.909,439.381ZM352.457,429.503C352.457,428.21 351.549,427.42 349.924,427.42L348.183,427.42L348.183,431.587L349.924,431.587C351.548,431.587 352.457,430.795 352.457,429.503" style="fill:white;"/>
        <path d="M365.356,439.381L365.356,437.548L364.295,437.548C363.822,437.548 363.435,437.027 363.435,436.389L363.435,428.557C363.435,427.919 363.822,427.399 364.295,427.399L365.356,427.399L365.356,425.565L357.137,425.565L357.137,427.399L358.2,427.399C358.673,427.399 359.06,427.92 359.06,428.557L359.06,436.389C359.06,437.027 358.673,437.548 358.2,437.548L357.137,437.548L357.137,439.381L365.356,439.381Z" style="fill:white;"/>
        <path d="M427.018,439.381L427.018,437.548L425.959,437.548C425.484,437.548 425.094,437.027 425.094,436.389L425.094,428.557C425.094,427.919 425.485,427.399 425.959,427.399L427.018,427.399L427.018,425.565L418.799,425.565L418.799,427.399L419.86,427.399C420.333,427.399 420.722,427.92 420.722,428.557L420.722,436.389C420.722,437.027 420.332,437.548 419.86,437.548L418.799,437.548L418.799,439.381L427.018,439.381Z" style="fill:white;"/>
        <path d="M398.485,425.376L396.393,425.376C396.393,425.376 396.16,426.767 395.173,426.103C394.335,425.539 393.095,425.148 391.745,425.148C386.797,425.148 383.521,427.961 383.521,432.671C383.521,437.339 386.483,439.798 391.318,439.798C392.826,439.798 394.475,439.277 395.235,438.669C396.451,437.699 396.405,439.548 396.405,439.548L398.426,439.548L398.426,435.079C398.426,434.442 398.814,433.921 399.287,433.921L400.4,433.921L400.4,432.087L392.374,432.087L392.374,433.921L392.719,433.921C394.528,433.921 394.985,434.685 394.985,435.869C394.985,437.136 393.464,437.817 392.106,437.817C389.364,437.817 387.702,436.088 387.702,432.483C387.702,428.878 389.898,427.085 392.535,427.085C394.616,427.085 395.925,428.576 396.246,430.352L398.485,430.352L398.485,425.376Z" style="fill:white;"/>
        <path d="M416.554,425.376L414.463,425.376C414.463,425.376 414.233,426.767 413.243,426.103C412.408,425.539 411.164,425.148 409.816,425.148C404.867,425.148 401.591,427.961 401.591,432.671C401.591,437.339 404.554,439.798 409.387,439.798C410.896,439.798 412.545,439.277 413.308,438.669C414.521,437.699 414.476,439.548 414.476,439.548L416.496,439.548L416.496,435.079C416.496,434.442 416.884,433.921 417.357,433.921L418.472,433.921L418.472,432.087L410.446,432.087L410.446,433.921L410.789,433.921C412.599,433.921 413.055,434.685 413.055,435.869C413.055,437.136 411.535,437.817 410.176,437.817C407.436,437.817 405.773,436.088 405.773,432.483C405.773,428.878 407.968,427.085 410.607,427.085C412.686,427.085 413.996,428.576 414.315,430.352L416.554,430.352L416.554,425.376Z" style="fill:white;"/>
        <path d="M399.814,418.637L399.852,379.691C399.852,379.691 410.379,384.947 414.057,386.588C417.73,388.235 426.269,390.427 426.269,390.427C444.359,391.491 453.624,377.583 453.642,361.694C453.656,349.576 445.767,339.812 436.099,334.293L402.413,313.207C400.194,311.731 396.025,307.394 394.444,303.817C393.257,301.123 392.143,295.863 392.057,293.524L391.932,293.524C391.847,295.863 390.726,301.113 389.537,303.799C387.952,307.374 383.779,311.712 381.553,313.182L347.85,334.228C338.172,339.735 330.278,349.493 330.278,361.614C330.278,377.5 339.529,391.422 357.621,390.377C357.621,390.377 366.16,388.19 369.838,386.553C373.515,384.914 384.049,379.668 384.049,379.668L384.049,418.614L399.814,418.637ZM384.049,330.229C384.049,330.229 358.503,345.63 357.122,346.623C355.61,347.702 350.67,352.231 349.969,352.936C347.403,355.163 345.77,358.532 345.77,362.3C345.77,369.002 350.938,374.438 357.312,374.438C360.263,374.438 364.447,371.899 367.034,370.491L384.049,362.36L384.049,330.229ZM416.878,370.528L399.87,362.379L399.903,330.25C399.903,330.25 425.427,345.686 426.814,346.671C428.322,347.757 433.259,352.292 433.96,352.994C436.521,355.222 438.151,358.597 438.146,362.365C438.142,369.071 432.968,374.496 426.599,374.489C423.646,374.487 419.462,371.94 416.878,370.528" style="fill:white;"/>
    </g>
</svg>
