<?xml version="1.0" encoding="utf-8"?>
<!-- Generator: Adobe Illustrator 25.2.0, SVG Export Plug-In . SVG Version: 6.00 Build 0)  -->
<svg version="1.1" id="Layer_1" xmlns="http://www.w3.org/2000/svg" xmlns:xlink="http://www.w3.org/1999/xlink" x="0px" y="0px"
	 viewBox="0 0 32 42" style="enable-background:new 0 0 32 42;" xml:space="preserve">
<style type="text/css">
	.st0{display:none;fill:#7993CB;}
	.st1{fill:#7993CB;}
</style>
<path class="st0" d="M0.5,19.8v-14h26.4l-4.2-4.2L24.3,0l7,7l-7,7l-1.6-1.6l4.2-4.2h-24v11.7H0.5z"/>
<path class="st0" d="M0,35l7-7l1.6,1.6l-4.2,4.2h24V22.2h2.3v14H4.5l4.2,4.2L7,42L0,35z"/>
<path class="st1" d="M24.9,31.7H7.7v-7.9l-7.4,7.4V5.8h25.9v7.4h5.5v25.3L24.9,31.7z M29.9,34.1v-19H9.5v14.8h16.1L29.9,34.1z
	 M2.1,26.7l4.2-4.2h1.3v-9.2h16.6V7.7H2.1V26.7z"/>
<path class="st1" d="M24.3,18.7h-9.2v1.8h9.2V18.7z"/>
<path class="st1" d="M24.3,24.3h-9.2v1.8h9.2V24.3z"/>
</svg>
