<svg width="269.7049377441406px" height="123.68000183105468px" xmlns="http://www.w3.org/2000/svg" viewBox="115.14753112792971 13.159999084472659 269.7049377441406 123.68000183105468" style="background: rgba(0, 0, 0, 0);" preserveAspectRatio="xMidYMid"><defs><linearGradient id="editing-shiny-gradient" x1="0.04322727117869957" x2="0.9567727288213004" y1="0.2966316784620999" y2="0.7033683215379001" gradientUnits="objectBoundingBox"><stop offset="0.0" stop-color="#ffb200"></stop><stop offset="0.5" stop-color="#e10057"></stop><stop offset="1.0" stop-color="#5A1A80"></stop></linearGradient><linearGradient id="editing-shiny-gradient2" x1="0" x2="0" y1="0" y2="1"><stop offset="0.2" stop-color="#fff" stop-opacity="0.8"></stop><stop offset="0.8" stop-color="#fff" stop-opacity="0"></stop></linearGradient><filter id="editing-shiny2" x="-100%" y="-100%" width="300%" height="300%"><feMorphology operator="erode" radius="2"></feMorphology></filter><filter id="editing-shiny" x="-100%" y="-100%" width="300%" height="300%"><feFlood flood-color="#fff" result="flood"></feFlood><feConvolveMatrix in="SourceGraphic" result="conv" order="8,8" divisor="1" kernelMatrix="0 0 0 0 0 0 0 0 0 0 0 1 1 0 0 0 0 0 0 1 1 0 0 0 0 0 1 0 0 1 0 0 0 0 1 0 0 1 0 0 0 1 0 0 0 0 1 0 0 1 1 0 0 1 1 0 0 0 0 1 1 0 0 0 "></feConvolveMatrix><feOffset dx="0" dy="4" in="conv" result="offset"></feOffset><feComposite operator="in" in="flood" in2="offset" result="comp"></feComposite><feGaussianBlur in="offset" stdDeviation="3" result="shadow"></feGaussianBlur><feColorMatrix in="shadow" type="matrix" values="0.7 0 0 0 0  0 0.7 0 0 0  0 0 0.7 0 0  0 0 0 0.3 0" result="dark-shadow"></feColorMatrix><feOffset dx="0" dy="4" in="dark-shadow" result="offset-shadow"></feOffset><feOffset dx="0" dy="2" in="conv" result="offset-2"></feOffset><feComposite operator="out" in="offset" in2="offset-2" result="edge-diff"></feComposite><feGaussianBlur in="edge-diff" stdDeviation="1" result="edge-blur"></feGaussianBlur><feColorMatrix in="edge-blur" result="edge-shadow" type="matrix" values="0 0 0 0 0  0 0 0 0 0  0 0 0 0 0  0 0 0 0.5 0"></feColorMatrix><feComposite operator="in" in="edge-shadow" in2="offset" result="edge-shadow-in"></feComposite><feOffset dx="0" dy="1" in="edge-shadow-in" result="edge-shadow-final"></feOffset><feMerge result="out"><feMergeNode in="offset-shadow"></feMergeNode><feMergeNode in="comp"></feMergeNode><feMergeNode in="edge-shadow-final"></feMergeNode><feMergeNode in="SourceGraphic"></feMergeNode></feMerge></filter></defs><g filter="url(#editing-shiny)"><g transform="translate(158.9600338935852, 98.20000267028809)"><path d="M29.25 0L24.13-15.68L9.54-15.68L4.54 0L0.77 0L15.10-44.80L18.50-44.80L33.09 0L29.25 0ZM16.77-39.23L10.56-19.20L23.17-19.20L16.77-39.23ZM57.92 0L57.92-21.95L57.92-21.95Q57.92-25.86 55.65-27.62L55.65-27.62L55.65-27.62Q53.38-29.38 49.79-29.38L49.79-29.38L49.79-29.38Q47.62-29.38 45.38-28.77L45.38-28.77L45.38-28.77Q43.14-28.16 41.41-27.20L41.41-27.20L41.41 0L37.82 0L37.82-44.80L41.41-44.80L41.41-30.34L41.41-30.34Q43.01-31.42 45.25-32.03L45.25-32.03L45.25-32.03Q47.49-32.64 49.92-32.64L49.92-32.64L49.92-32.64Q53.25-32.64 56-31.42L56-31.42L56-31.42Q58.56-30.27 60-27.97L60-27.97L60-27.97Q61.44-25.66 61.44-22.14L61.44-22.14L61.44 0L57.92 0ZM72.45-41.15L72.45-41.15Q71.62-41.15 70.94-41.82L70.94-41.82L70.94-41.82Q70.27-42.50 70.27-43.33L70.27-43.33L70.27-43.33Q70.27-44.16 70.91-44.80L70.91-44.80L70.91-44.80Q71.55-45.44 72.45-45.44L72.45-45.44L72.45-45.44Q73.34-45.44 73.95-44.83L73.95-44.83L73.95-44.83Q74.56-44.22 74.56-43.33L74.56-43.33L74.56-43.33Q74.56-42.43 73.92-41.79L73.92-41.79L73.92-41.79Q73.28-41.15 72.45-41.15L72.45-41.15ZM70.59 0L70.59-32.06L74.18-32.06L74.18 0L70.59 0ZM121.09 0L121.09-21.95L121.09-21.95Q121.09-25.79 119.07-27.58L119.07-27.58L119.07-27.58Q117.06-29.38 113.86-29.38L113.86-29.38L113.86-29.38Q111.36-29.38 108.29-28.29L108.29-28.29L105.92-27.14L105.92-27.14Q107.01-24.96 107.01-22.14L107.01-22.14L107.01 0L103.49 0L103.49-21.95L103.49-21.95Q103.49-25.86 101.47-27.62L101.47-27.62L101.47-27.62Q99.46-29.38 96.19-29.38L96.19-29.38L96.19-29.38Q94.21-29.38 92.10-28.77L92.10-28.77L92.10-28.77Q89.98-28.16 88.26-27.20L88.26-27.20L88.26 0L84.67 0L84.67-32.06L88.26-32.06L87.94-30.02L87.94-30.02Q92.16-32.51 96.58-32.51L96.58-32.51L96.58-32.51Q98.88-32.51 100.90-31.74L100.90-31.74L100.90-31.74Q102.91-30.98 104.32-29.50L104.32-29.50L104.32-29.50Q105.22-30.02 107.01-30.91L107.01-30.91L107.01-30.91Q110.78-32.64 114.30-32.64L114.30-32.64L114.30-32.64Q118.85-32.64 121.73-29.86L121.73-29.86L121.73-29.86Q124.61-27.07 124.61-22.14L124.61-22.14L124.61 0L121.09 0ZM132.42-8.13L132.42-8.13Q132.80-5.25 135.30-3.81L135.30-3.81L135.30-3.81Q137.79-2.37 140.86-2.37L140.86-2.37L140.86-2.37Q143.74-2.37 146.11-3.68L146.11-3.68L146.11-3.68Q148.48-4.99 148.48-7.94L148.48-7.94L148.48-7.94Q148.48-9.86 147.36-11.10L147.36-11.10L147.36-11.10Q146.24-12.35 144.58-13.12L144.58-13.12L144.58-13.12Q142.91-13.89 140.10-14.78L140.10-14.78L140.10-14.78Q136.96-15.81 134.98-16.70L134.98-16.70L134.98-16.70Q132.99-17.60 131.52-19.23L131.52-19.23L131.52-19.23Q130.05-20.86 129.79-23.36L129.79-23.36L129.73-24.13L129.73-24.13Q129.73-26.24 130.91-28.26L130.91-28.26L130.91-28.26Q132.10-30.27 134.56-31.55L134.56-31.55L134.56-31.55Q137.02-32.83 140.74-32.83L140.74-32.83L140.74-32.83Q142.78-32.83 144.35-32.42L144.35-32.42L144.35-32.42Q145.92-32 146.82-31.55L146.82-31.55L146.82-31.55Q147.71-31.10 147.90-30.98L147.90-30.98L146.69-28.03L146.69-28.03Q146.50-28.16 145.76-28.54L145.76-28.54L145.76-28.54Q145.02-28.93 143.68-29.31L143.68-29.31L143.68-29.31Q142.34-29.70 140.74-29.70L140.74-29.70L140.74-29.70Q137.66-29.70 135.49-28.26L135.49-28.26L135.49-28.26Q133.31-26.82 133.31-24.26L133.31-24.26L133.31-24.26Q133.31-21.82 135.30-20.54L135.30-20.54L135.30-20.54Q137.28-19.26 141.38-17.98L141.38-17.98L141.38-17.98Q144.83-16.83 146.94-15.81L146.94-15.81L146.94-15.81Q149.06-14.78 150.56-12.90L150.56-12.90L150.56-12.90Q152.06-11.01 152.06-8L152.06-8L152.06-8Q152.06-4.16 149.22-1.60L149.22-1.60L149.22-1.60Q146.37 0.96 140.86 0.96L140.86 0.96L140.86 0.96Q137.22 0.96 134.56-0.29L134.56-0.29L134.56-0.29Q131.90-1.54 130.53-3.58L130.53-3.58L130.53-3.58Q129.15-5.63 129.02-8.13L129.02-8.13L132.42-8.13ZM181.31 0L181.31 0Q174.40 0.70 171.33 0.70L171.33 0.70L171.33 0.70Q164.61 0.70 160.64-1.79L160.64-1.79L160.64-1.79Q156.67-4.29 156.67-10.82L156.67-10.82L156.67-16.13L156.67-16.13Q156.67-22.46 161.09-24.64L161.09-24.64L161.09-24.64Q163.20-25.73 166.46-25.73L166.46-25.73L166.46-25.73Q169.47-25.73 172.54-24.74L172.54-24.74L172.54-24.74Q175.62-23.74 177.73-22.14L177.73-22.14L177.73-22.14Q177.73-25.66 175.68-27.74L175.68-27.74L175.68-27.74Q173.63-29.82 167.81-29.82L167.81-29.82L168-32.58L168-32.58Q174.14-32.58 177.06-30.62L177.06-30.62L177.06-30.62Q179.97-28.67 180.64-25.98L180.64-25.98L180.64-25.98Q181.31-23.30 181.31-19.07L181.31-19.07L181.31 0ZM177.73-19.39L177.73-19.39Q175.10-20.61 172.13-21.50L172.13-21.50L172.13-21.50Q169.15-22.40 166.66-22.40L166.66-22.40L166.66-22.40Q160.19-22.40 160.19-15.94L160.19-15.94L160.19-10.37L160.19-10.37Q160.19-6.21 163.07-4.32L163.07-4.32L163.07-4.32Q165.95-2.43 171.26-2.43L171.26-2.43L171.26-2.43Q174.02-2.43 177.73-2.94L177.73-2.94L177.73-19.39Z" fill="url(#editing-shiny-gradient)"></path></g></g><g filter="url(#editing-shiny2)"><g transform="translate(158.9600110054016, 98.20000267028809)"><path d="M29.25 0L24.13-15.68L9.54-15.68L4.54 0L0.77 0L15.10-44.80L18.50-44.80L33.09 0L29.25 0ZM16.77-39.23L10.56-19.20L23.17-19.20L16.77-39.23ZM57.92 0L57.92-21.95L57.92-21.95Q57.92-25.86 55.65-27.62L55.65-27.62L55.65-27.62Q53.38-29.38 49.79-29.38L49.79-29.38L49.79-29.38Q47.62-29.38 45.38-28.77L45.38-28.77L45.38-28.77Q43.14-28.16 41.41-27.20L41.41-27.20L41.41 0L37.82 0L37.82-44.80L41.41-44.80L41.41-30.34L41.41-30.34Q43.01-31.42 45.25-32.03L45.25-32.03L45.25-32.03Q47.49-32.64 49.92-32.64L49.92-32.64L49.92-32.64Q53.25-32.64 56-31.42L56-31.42L56-31.42Q58.56-30.27 60-27.97L60-27.97L60-27.97Q61.44-25.66 61.44-22.14L61.44-22.14L61.44 0L57.92 0ZM72.45-41.15L72.45-41.15Q71.62-41.15 70.94-41.82L70.94-41.82L70.94-41.82Q70.27-42.50 70.27-43.33L70.27-43.33L70.27-43.33Q70.27-44.16 70.91-44.80L70.91-44.80L70.91-44.80Q71.55-45.44 72.45-45.44L72.45-45.44L72.45-45.44Q73.34-45.44 73.95-44.83L73.95-44.83L73.95-44.83Q74.56-44.22 74.56-43.33L74.56-43.33L74.56-43.33Q74.56-42.43 73.92-41.79L73.92-41.79L73.92-41.79Q73.28-41.15 72.45-41.15L72.45-41.15ZM70.59 0L70.59-32.06L74.18-32.06L74.18 0L70.59 0ZM121.09 0L121.09-21.95L121.09-21.95Q121.09-25.79 119.07-27.58L119.07-27.58L119.07-27.58Q117.06-29.38 113.86-29.38L113.86-29.38L113.86-29.38Q111.36-29.38 108.29-28.29L108.29-28.29L105.92-27.14L105.92-27.14Q107.01-24.96 107.01-22.14L107.01-22.14L107.01 0L103.49 0L103.49-21.95L103.49-21.95Q103.49-25.86 101.47-27.62L101.47-27.62L101.47-27.62Q99.46-29.38 96.19-29.38L96.19-29.38L96.19-29.38Q94.21-29.38 92.10-28.77L92.10-28.77L92.10-28.77Q89.98-28.16 88.26-27.20L88.26-27.20L88.26 0L84.67 0L84.67-32.06L88.26-32.06L87.94-30.02L87.94-30.02Q92.16-32.51 96.58-32.51L96.58-32.51L96.58-32.51Q98.88-32.51 100.90-31.74L100.90-31.74L100.90-31.74Q102.91-30.98 104.32-29.50L104.32-29.50L104.32-29.50Q105.22-30.02 107.01-30.91L107.01-30.91L107.01-30.91Q110.78-32.64 114.30-32.64L114.30-32.64L114.30-32.64Q118.85-32.64 121.73-29.86L121.73-29.86L121.73-29.86Q124.61-27.07 124.61-22.14L124.61-22.14L124.61 0L121.09 0ZM132.42-8.13L132.42-8.13Q132.80-5.25 135.30-3.81L135.30-3.81L135.30-3.81Q137.79-2.37 140.86-2.37L140.86-2.37L140.86-2.37Q143.74-2.37 146.11-3.68L146.11-3.68L146.11-3.68Q148.48-4.99 148.48-7.94L148.48-7.94L148.48-7.94Q148.48-9.86 147.36-11.10L147.36-11.10L147.36-11.10Q146.24-12.35 144.58-13.12L144.58-13.12L144.58-13.12Q142.91-13.89 140.10-14.78L140.10-14.78L140.10-14.78Q136.96-15.81 134.98-16.70L134.98-16.70L134.98-16.70Q132.99-17.60 131.52-19.23L131.52-19.23L131.52-19.23Q130.05-20.86 129.79-23.36L129.79-23.36L129.73-24.13L129.73-24.13Q129.73-26.24 130.91-28.26L130.91-28.26L130.91-28.26Q132.10-30.27 134.56-31.55L134.56-31.55L134.56-31.55Q137.02-32.83 140.74-32.83L140.74-32.83L140.74-32.83Q142.78-32.83 144.35-32.42L144.35-32.42L144.35-32.42Q145.92-32 146.82-31.55L146.82-31.55L146.82-31.55Q147.71-31.10 147.90-30.98L147.90-30.98L146.69-28.03L146.69-28.03Q146.50-28.16 145.76-28.54L145.76-28.54L145.76-28.54Q145.02-28.93 143.68-29.31L143.68-29.31L143.68-29.31Q142.34-29.70 140.74-29.70L140.74-29.70L140.74-29.70Q137.66-29.70 135.49-28.26L135.49-28.26L135.49-28.26Q133.31-26.82 133.31-24.26L133.31-24.26L133.31-24.26Q133.31-21.82 135.30-20.54L135.30-20.54L135.30-20.54Q137.28-19.26 141.38-17.98L141.38-17.98L141.38-17.98Q144.83-16.83 146.94-15.81L146.94-15.81L146.94-15.81Q149.06-14.78 150.56-12.90L150.56-12.90L150.56-12.90Q152.06-11.01 152.06-8L152.06-8L152.06-8Q152.06-4.16 149.22-1.60L149.22-1.60L149.22-1.60Q146.37 0.96 140.86 0.96L140.86 0.96L140.86 0.96Q137.22 0.96 134.56-0.29L134.56-0.29L134.56-0.29Q131.90-1.54 130.53-3.58L130.53-3.58L130.53-3.58Q129.15-5.63 129.02-8.13L129.02-8.13L132.42-8.13ZM181.31 0L181.31 0Q174.40 0.70 171.33 0.70L171.33 0.70L171.33 0.70Q164.61 0.70 160.64-1.79L160.64-1.79L160.64-1.79Q156.67-4.29 156.67-10.82L156.67-10.82L156.67-16.13L156.67-16.13Q156.67-22.46 161.09-24.64L161.09-24.64L161.09-24.64Q163.20-25.73 166.46-25.73L166.46-25.73L166.46-25.73Q169.47-25.73 172.54-24.74L172.54-24.74L172.54-24.74Q175.62-23.74 177.73-22.14L177.73-22.14L177.73-22.14Q177.73-25.66 175.68-27.74L175.68-27.74L175.68-27.74Q173.63-29.82 167.81-29.82L167.81-29.82L168-32.58L168-32.58Q174.14-32.58 177.06-30.62L177.06-30.62L177.06-30.62Q179.97-28.67 180.64-25.98L180.64-25.98L180.64-25.98Q181.31-23.30 181.31-19.07L181.31-19.07L181.31 0ZM177.73-19.39L177.73-19.39Q175.10-20.61 172.13-21.50L172.13-21.50L172.13-21.50Q169.15-22.40 166.66-22.40L166.66-22.40L166.66-22.40Q160.19-22.40 160.19-15.94L160.19-15.94L160.19-10.37L160.19-10.37Q160.19-6.21 163.07-4.32L163.07-4.32L163.07-4.32Q165.95-2.43 171.26-2.43L171.26-2.43L171.26-2.43Q174.02-2.43 177.73-2.94L177.73-2.94L177.73-19.39Z" fill="url(#editing-shiny-gradient2)"></path></g></g><style>text {
  font-size: 64px;
  font-family: Arial Black;
  dominant-baseline: central;
  text-anchor: middle;
}</style></svg>