<?xml version="1.0" ?><svg width="32px" height="32px" viewBox="0 0 32 32" xmlns="http://www.w3.org/2000/svg"><defs><style>.cls-1{fill:#04009a;}.cls-2{fill:#77acf1;}</style></defs><g data-name="12. Consultation" id="_12._Consultation"><path class="cls-1" d="M20.21,32H9.79A4.8,4.8,0,0,1,5,27.21V4.79A4.8,4.8,0,0,1,9.79,0H20.21A4.8,4.8,0,0,1,25,4.79V5a1,1,0,0,1-2,0V4.79A2.79,2.79,0,0,0,20.21,2H9.79A2.79,2.79,0,0,0,7,4.79V27.21A2.79,2.79,0,0,0,9.79,30H20.21A2.79,2.79,0,0,0,23,27.21V25a1,1,0,0,1,2,0v2.21A4.8,4.8,0,0,1,20.21,32Z"/><path class="cls-2" d="M15,28a2,2,0,1,1,2-2A2,2,0,0,1,15,28Zm0-2Z"/><path class="cls-1" d="M18,6H12a1,1,0,0,1,0-2h6a1,1,0,0,1,0,2Z"/><path class="cls-1" d="M27,11a3,3,0,1,0-4,2.82V17a3,3,0,0,1-3,3H18a3,3,0,0,1-3-3V16a1,1,0,0,0-2,0v1a5,5,0,0,0,5,5h2a5,5,0,0,0,5-5V13.82A3,3,0,0,0,27,11Zm-3,1a1,1,0,1,1,1-1A1,1,0,0,1,24,12Z"/><path class="cls-2" d="M14,17a5,5,0,0,1-5-5V10a2,2,0,0,1,2-2h1a1,1,0,0,1,0,2H11v2a3,3,0,0,0,6,0V10H16a1,1,0,0,1,0-2h1a2,2,0,0,1,2,2v2A5,5,0,0,1,14,17Z"/></g></svg>