<?xml version="1.0" ?><svg width="32px" height="32px" viewBox="0 0 32 32" xmlns="http://www.w3.org/2000/svg"><defs><style>.cls-1{fill:#04009a;}.cls-2{fill:#77acf1;}</style></defs><g data-name="27. Video Conference" id="_27._Video_Conference"><path class="cls-1" d="M31.36,12.07a1,1,0,0,0-1.11.27l-6.25,7V15a3,3,0,0,0-3-3H3a3,3,0,0,0-3,3V29a3,3,0,0,0,3,3H21a3,3,0,0,0,3-3V24.63l6.25,7A1,1,0,0,0,31,32a.92.92,0,0,0,.36-.07A1,1,0,0,0,32,31V13A1,1,0,0,0,31.36,12.07ZM22,29a1,1,0,0,1-1,1H3a1,1,0,0,1-1-1V15a1,1,0,0,1,1-1H21a1,1,0,0,1,1,1Zm8-.63L24.34,22,30,15.63Z"/><path class="cls-2" d="M14,28H10a1,1,0,0,1-1-1V25H7a1,1,0,0,1-1-1V20a1,1,0,0,1,1-1H9V17a1,1,0,0,1,1-1h4a1,1,0,0,1,1,1v2h2a1,1,0,0,1,1,1v4a1,1,0,0,1-1,1H15v2A1,1,0,0,1,14,28Zm-3-2h2V24a1,1,0,0,1,1-1h2V21H14a1,1,0,0,1-1-1V18H11v2a1,1,0,0,1-1,1H8v2h2a1,1,0,0,1,1,1Z"/><path class="cls-2" d="M27,13h-.13a1,1,0,0,1-.82-.67L25.28,10H17a3,3,0,0,1-3-3V3a3,3,0,0,1,3-3H29a3,3,0,0,1,3,3V7A3,3,0,0,1,29.57,10l-1.74,2.6A1,1,0,0,1,27,13ZM17,2a1,1,0,0,0-1,1V7a1,1,0,0,0,1,1h9a1,1,0,0,1,.95.68l.35,1.06.87-1.29A1,1,0,0,1,29,8a1,1,0,0,0,1-1V3a1,1,0,0,0-1-1Z"/><path class="cls-2" d="M19,6a1,1,0,0,1,0-2h0a1,1,0,0,1,0,2Z"/><path class="cls-2" d="M23,6a1,1,0,0,1,0-2h0a1,1,0,0,1,0,2Z"/><path class="cls-2" d="M27,6a1,1,0,0,1,0-2h0a1,1,0,0,1,0,2Z"/></g></svg>