<?xml version="1.0" encoding="utf-8"?>
<!-- Generator: Adobe Illustrator 25.2.0, SVG Export Plug-In . SVG Version: 6.00 Build 0)  -->
<svg version="1.1" id="Layer_1" xmlns="http://www.w3.org/2000/svg" xmlns:xlink="http://www.w3.org/1999/xlink" x="0px" y="0px"
	 viewBox="0 0 32 42" style="enable-background:new 0 0 32 42;" xml:space="preserve">
<style type="text/css">
	.st0{display:none;fill:#7993CB;}
	.st1{display:none;}
	.st2{display:inline;fill:#7993CB;}
	.st3{fill:#7993CB;}
</style>
<path class="st0" d="M0.6,19.8v-14H27l-4.2-4.2L24.4,0l7,7l-7,7l-1.6-1.6L27,8.2H3v11.7H0.6V19.8z"/>
<path class="st0" d="M0,35l7-7l1.6,1.6l-4.2,4.2h24V22.2h2.3v14H4.5l4.2,4.2L7,42L0,35z"/>
<g id="XMLID_481_" class="st1">
	<path id="XMLID_482_" class="st2" d="M12,31.4c0.5,0.5,1.1,0.9,1.6,1.4c0,0,0,0,0,0l1.8,1.6c0.2,0.2,0.6,0.3,0.9,0.3
		c0.3,0,0.6-0.1,0.9-0.3l1.8-1.6c0,0,0,0,0,0c3.6-3.2,6.4-5.7,8.3-8.1c2.3-2.8,3.4-5.3,3.4-8c0-4.8-3.7-8.5-8.5-8.5
		c-2.1,0-4.3,0.8-5.9,2.2c-1.6-1.4-3.7-2.2-5.9-2.2c-4.8,0-8.5,3.7-8.5,8.5C1.9,22.5,5.9,26,12,31.4z M11.1,18.8h3.5v-3.5H18v3.5
		h3.5v3.5H18v3.5h-3.5v-3.5h-3.5L11.1,18.8L11.1,18.8z"/>
</g>
<g id="_34._Health_Care" class="st1">
	<path class="st2" d="M30.8,20.7c-2-1.3-4.7-1-6.3,0.8l-3.1,3.5c-0.6-1.5-2-2.5-3.6-2.6h-0.9c-0.5,0-1-0.1-1.4-0.4
		c-3.6-2.4-8.4-1.9-11.5,1.1l-3.4,3.4c-0.4,0.4-0.4,1,0,1.4s1,0.4,1.4,0l0,0l3.4-3.4c2.4-2.4,6.2-2.8,9-0.9c0.7,0.5,1.6,0.7,2.4,0.7
		h0.9c1.1,0,1.9,0.9,1.9,1.9h-6.8c-0.5,0-1,0.4-1,1s0.4,1,1,1h7.8c0.3,0,0.5-0.1,0.7-0.3l0,0l4.5-5.2c0.7-0.8,1.8-1.2,2.9-0.9
		L22,31.1c-0.5,0.7-1.4,1.2-2.3,1.2h-8.1c-1.3,0-2.5,0.5-3.4,1.4l-0.8,0.8c-0.4,0.4-0.4,1,0,1.4c0,0,0,0,0,0c0.4,0.4,1,0.4,1.4,0
		c0,0,0,0,0,0L9.6,35c0.5-0.5,1.3-0.9,2.1-0.9h8.1c1.5,0,3-0.7,3.9-1.9l7.6-10.1c0.1-0.2,0.2-0.5,0.1-0.8
		C31.2,21.1,31.1,20.8,30.8,20.7z"/>
	<path class="st2" d="M21.6,18.6h-3.9c-0.5,0-1-0.4-1-1v-2.9h-2.9c-0.5,0-1-0.4-1-1V9.9c0-0.5,0.4-1,1-1h2.9V6c0-0.5,0.4-1,1-1h3.9
		c0.5,0,1,0.4,1,1v2.9h2.9c0.5,0,1,0.4,1,1v3.9c0,0.5-0.4,1-1,1h-2.9v2.9C22.6,18.2,22.2,18.6,21.6,18.6z M18.7,16.7h1.9v-2.9
		c0-0.5,0.4-1,1-1h2.9v-1.9h-2.9c-0.5,0-1-0.4-1-1V7h-1.9v2.9c0,0.5-0.4,1-1,1h-2.9v1.9h2.9c0.5,0,1,0.4,1,1V16.7z"/>
</g>
<g id="_27._Video_Conference" class="st1">
	<path class="st2" d="M30.2,16.3c-0.4-0.1-0.8,0-1,0.2L23.4,23v-4c0-1.5-1.2-2.8-2.8-2.8H4c-1.5,0-2.8,1.2-2.8,2.8v12.9
		c0,1.5,1.2,2.8,2.8,2.8l0,0h16.6c1.5,0,2.8-1.2,2.8-2.8l0,0v-4l5.8,6.4c0.2,0.2,0.4,0.3,0.7,0.3c0.1,0,0.2,0,0.3-0.1
		c0.4-0.1,0.6-0.5,0.6-0.9V17.1C30.7,16.7,30.5,16.4,30.2,16.3z M21.5,31.9c0,0.5-0.4,0.9-0.9,0.9H4c-0.5,0-0.9-0.4-0.9-0.9V19
		C3.1,18.4,3.5,18,4,18h16.6c0.5,0,0.9,0.4,0.9,0.9V31.9z M28.9,31.3l-5.2-5.9l5.2-5.9V31.3z"/>
	<path class="st2" d="M14.2,30.9h-3.7c-0.5,0-0.9-0.4-0.9-0.9v-1.8H7.7c-0.5,0-0.9-0.4-0.9-0.9v-3.7c0-0.5,0.4-0.9,0.9-0.9h1.8v-1.8
		c0-0.5,0.4-0.9,0.9-0.9h3.7c0.5,0,0.9,0.4,0.9,0.9v1.8h1.8c0.5,0,0.9,0.4,0.9,0.9v3.7c0,0.5-0.4,0.9-0.9,0.9h-1.8V30
		C15.1,30.5,14.7,30.9,14.2,30.9z M11.4,29.1h1.8v-1.8c0-0.5,0.4-0.9,0.9-0.9H16v-1.8h-1.8c-0.5,0-0.9-0.4-0.9-0.9v-1.8h-1.8v1.8
		c0,0.5-0.4,0.9-0.9,0.9H8.6v1.8h1.8c0.5,0,0.9,0.4,0.9,0.9V29.1z"/>
	<path class="st2" d="M26.1,17.1H26c-0.3,0-0.6-0.3-0.8-0.6l-0.7-2.1h-7.6c-1.5,0-2.8-1.2-2.8-2.8V7.9c0-1.5,1.2-2.8,2.8-2.8H28
		c1.5,0,2.8,1.2,2.8,2.8v3.7c0,1.3-0.9,2.5-2.2,2.8l-1.6,2.4C26.7,17,26.4,17.1,26.1,17.1z M16.9,7C16.4,7,16,7.4,16,7.9v3.7
		c0,0.5,0.4,0.9,0.9,0.9h8.3c0.4,0,0.7,0.3,0.9,0.6l0.3,1l0.8-1.2c0.2-0.3,0.5-0.4,0.8-0.4c0.5,0,0.9-0.4,0.9-0.9V7.9
		C28.9,7.4,28.5,7,28,7H16.9z"/>
	<path class="st2" d="M18.8,10.7c-0.5,0-0.9-0.4-0.9-0.9s0.4-0.9,0.9-0.9l0,0c0.5,0,0.9,0.4,0.9,0.9S19.3,10.7,18.8,10.7z"/>
	<path class="st2" d="M22.4,10.7c-0.5,0-0.9-0.4-0.9-0.9s0.4-0.9,0.9-0.9l0,0c0.5,0,0.9,0.4,0.9,0.9S23,10.7,22.4,10.7z"/>
	<path class="st2" d="M26.1,10.7c-0.5,0-0.9-0.4-0.9-0.9s0.4-0.9,0.9-0.9l0,0c0.5,0,0.9,0.4,0.9,0.9S26.6,10.7,26.1,10.7z"/>
</g>
<path id="heart--health_1_" class="st3" d="M31.2,34.9h-0.7c0-6.4-4.8-12.2-11.4-13.8c-0.1,0-0.3-0.2-0.3-0.3c0-0.2,0.1-0.3,0.2-0.4
	c2.9-1.3,4.7-4.1,4.7-7.2c0-4.4-3.6-7.9-7.9-7.9c-4.4,0-7.9,3.6-7.9,7.9c0,3.1,1.8,6,4.7,7.2c0.1,0.1,0.2,0.2,0.2,0.4
	c0,0.2-0.1,0.3-0.3,0.3C6,22.7,1.2,28.5,1.2,34.9H0.5c0-6.5,4.6-12.3,11-14.2c-2.6-1.5-4.3-4.4-4.3-7.5c0-4.8,3.9-8.6,8.6-8.6
	c4.8,0,8.6,3.9,8.6,8.6c0,3.1-1.7,5.9-4.3,7.5C26.6,22.6,31.2,28.4,31.2,34.9z M15.9,34.3c-0.1,0-0.2,0-0.3-0.1l-4-4
	c-0.5-0.5-0.8-1.2-0.8-1.9c0-0.7,0.3-1.4,0.8-1.9c0.5-0.5,1.2-0.8,1.9-0.8c0,0,0,0,0,0c0.7,0,1.4,0.3,1.9,0.8l0.4,0.4l0.4-0.4
	c1-1,2.8-1,3.9,0c0.5,0.5,0.8,1.2,0.8,2c0,0.7-0.3,1.4-0.8,1.9l-4,4C16,34.2,16,34.3,15.9,34.3z M13.6,26.3
	C13.6,26.3,13.6,26.3,13.6,26.3c-0.5,0-1,0.2-1.4,0.6c-0.4,0.4-0.6,0.9-0.6,1.4c0,0.5,0.2,1,0.6,1.4l3.7,3.7l3.7-3.7
	c0.4-0.4,0.6-0.9,0.6-1.4c0-0.5-0.2-1.1-0.6-1.5c-0.8-0.8-2.1-0.8-2.8,0l-0.6,0.6c-0.1,0.1-0.4,0.1-0.5,0L15,26.8
	C14.6,26.5,14.1,26.3,13.6,26.3z"/>
</svg>
