<?xml version="1.0" encoding="utf-8"?>
<!-- Generator: Adobe Illustrator 25.2.0, SVG Export Plug-In . SVG Version: 6.00 Build 0)  -->
<svg version="1.1" id="Layer_1" xmlns="http://www.w3.org/2000/svg" xmlns:xlink="http://www.w3.org/1999/xlink" x="0px" y="0px"
	 viewBox="0 0 32 42" style="enable-background:new 0 0 32 42;" xml:space="preserve">
<style type="text/css">
	.st0{display:none;fill:#7993CB;}
	.st1{display:none;}
	.st2{display:inline;fill:#7993CB;}
	.st3{fill:#7993CB;}
</style>
<path class="st0" d="M0.6,19.8v-14H27l-4.2-4.2L24.4,0l7,7l-7,7l-1.6-1.6L27,8.2H3v11.7H0.6V19.8z"/>
<path class="st0" d="M0,35l7-7l1.6,1.6l-4.2,4.2h24V22.2h2.3v14H4.5l4.2,4.2L7,42L0,35z"/>
<g id="XMLID_481_" class="st1">
	<path id="XMLID_482_" class="st2" d="M12,31.4c0.5,0.5,1.1,0.9,1.6,1.4c0,0,0,0,0,0l1.8,1.6c0.2,0.2,0.6,0.3,0.9,0.3
		c0.3,0,0.6-0.1,0.9-0.3l1.8-1.6c0,0,0,0,0,0c3.6-3.2,6.4-5.7,8.3-8.1c2.3-2.8,3.4-5.3,3.4-8c0-4.8-3.7-8.5-8.5-8.5
		c-2.1,0-4.3,0.8-5.9,2.2c-1.6-1.4-3.7-2.2-5.9-2.2c-4.8,0-8.5,3.7-8.5,8.5C1.9,22.5,5.9,26,12,31.4z M11.1,18.8h3.5v-3.5H18v3.5
		h3.5v3.5H18v3.5h-3.5v-3.5h-3.5L11.1,18.8L11.1,18.8z"/>
</g>
<g id="_34._Health_Care">
	<path class="st3" d="M30.8,20.7c-2-1.3-4.7-1-6.3,0.8l-3.1,3.5c-0.6-1.5-2-2.5-3.6-2.6h-0.9c-0.5,0-1-0.1-1.4-0.4
		c-3.6-2.4-8.4-1.9-11.5,1.1l-3.4,3.4c-0.4,0.4-0.4,1,0,1.4s1,0.4,1.4,0l0,0l3.4-3.4c2.4-2.4,6.2-2.8,9-0.9c0.7,0.5,1.6,0.7,2.4,0.7
		h0.9c1.1,0,1.9,0.9,1.9,1.9h-6.8c-0.5,0-1,0.4-1,1s0.4,1,1,1h7.8c0.3,0,0.5-0.1,0.7-0.3l0,0l4.5-5.2c0.7-0.8,1.8-1.2,2.9-0.9
		L22,31.1c-0.5,0.7-1.4,1.2-2.3,1.2h-8.1c-1.3,0-2.5,0.5-3.4,1.4l-0.8,0.8c-0.4,0.4-0.4,1,0,1.4c0,0,0,0,0,0c0.4,0.4,1,0.4,1.4,0
		c0,0,0,0,0,0L9.6,35c0.5-0.5,1.3-0.9,2.1-0.9h8.1c1.5,0,3-0.7,3.9-1.9l7.6-10.1c0.1-0.2,0.2-0.5,0.1-0.8
		C31.2,21.1,31.1,20.8,30.8,20.7z"/>
	<path class="st3" d="M21.6,18.6h-3.9c-0.5,0-1-0.4-1-1v-2.9h-2.9c-0.5,0-1-0.4-1-1V9.9c0-0.5,0.4-1,1-1h2.9V6c0-0.5,0.4-1,1-1h3.9
		c0.5,0,1,0.4,1,1v2.9h2.9c0.5,0,1,0.4,1,1v3.9c0,0.5-0.4,1-1,1h-2.9v2.9C22.6,18.2,22.2,18.6,21.6,18.6z M18.7,16.7h1.9v-2.9
		c0-0.5,0.4-1,1-1h2.9v-1.9h-2.9c-0.5,0-1-0.4-1-1V7h-1.9v2.9c0,0.5-0.4,1-1,1h-2.9v1.9h2.9c0.5,0,1,0.4,1,1V16.7z"/>
</g>
</svg>
