<svg id="Layer_1" data-name="Layer 1" xmlns="http://www.w3.org/2000/svg" viewBox="0 0 29.48 29.48"><defs><style>.cls-1{fill:#7993cb;}</style></defs><g id="_27._Video_Conference" data-name=" 27. Video Conference"><path class="cls-1" d="M30.15,16.26a.91.91,0,0,0-1,.25L23.37,23V19a2.77,2.77,0,0,0-2.76-2.77H4A2.77,2.77,0,0,0,1.26,19v12.9A2.77,2.77,0,0,0,4,34.62H20.61a2.77,2.77,0,0,0,2.76-2.76h0v-4l5.76,6.45a.91.91,0,0,0,1.61-.58V17.12A.92.92,0,0,0,30.15,16.26Zm-8.62,15.6a.92.92,0,0,1-.92.92H4a.92.92,0,0,1-.92-.92V19A.92.92,0,0,1,4,18H20.61a.92.92,0,0,1,.92.92Zm7.37-.58-5.22-5.87,5.22-5.87Z" transform="translate(-1.26 -5.14)"/><path class="cls-1" d="M14.16,30.94H10.47A.93.93,0,0,1,9.55,30V28.17H7.71a.92.92,0,0,1-.92-.92V23.57a.93.93,0,0,1,.92-.93H9.55V20.8a.92.92,0,0,1,.92-.92h3.69a.92.92,0,0,1,.92.92v1.84h1.84a.93.93,0,0,1,.92.93v3.68a.92.92,0,0,1-.92.92H15.08V30A.93.93,0,0,1,14.16,30.94Zm-2.77-1.85h1.85V27.25a.92.92,0,0,1,.92-.92H16V24.49H14.16a.92.92,0,0,1-.92-.92V21.72H11.39v1.85a.92.92,0,0,1-.92.92H8.63v1.84h1.84a.92.92,0,0,1,.92.92Z" transform="translate(-1.26 -5.14)"/><path class="cls-1" d="M26.13,17.12H26a.94.94,0,0,1-.75-.62l-.71-2.15H16.92a2.76,2.76,0,0,1-2.76-2.76V7.9a2.76,2.76,0,0,1,2.76-2.76H28A2.77,2.77,0,0,1,30.74,7.9v3.69a2.75,2.75,0,0,1-2.24,2.76l-1.6,2.4A1,1,0,0,1,26.13,17.12ZM16.92,7A.92.92,0,0,0,16,7.9v3.69a.92.92,0,0,0,.92.92h8.29a.92.92,0,0,1,.88.63l.32,1,.8-1.19a.94.94,0,0,1,.77-.41.92.92,0,0,0,.92-.92V7.9A.92.92,0,0,0,28,7Z" transform="translate(-1.26 -5.14)"/><path class="cls-1" d="M18.76,10.67a.93.93,0,0,1,0-1.85h0a.93.93,0,1,1,0,1.85Z" transform="translate(-1.26 -5.14)"/><path class="cls-1" d="M22.45,10.67a.93.93,0,0,1,0-1.85h0a.93.93,0,0,1,0,1.85Z" transform="translate(-1.26 -5.14)"/><path class="cls-1" d="M26.13,10.67a.93.93,0,0,1,0-1.85h0a.93.93,0,1,1,0,1.85Z" transform="translate(-1.26 -5.14)"/></g></svg>