<svg id="Layer_1" data-name="Layer 1" xmlns="http://www.w3.org/2000/svg" viewBox="0 0 28.8 26.46"><defs><style>.cls-1{fill:#7993cb;}</style></defs><path class="cls-1" d="M12,31.37l1.61,1.41h0l1.84,1.59a1.29,1.29,0,0,0,.85.31,1.32,1.32,0,0,0,.86-.31L19,32.79h0a77.31,77.31,0,0,0,8.33-8.07c2.3-2.8,3.37-5.33,3.37-8a8.41,8.41,0,0,0-8.51-8.5,9.12,9.12,0,0,0-5.89,2.2,9.12,9.12,0,0,0-5.89-2.2,8.41,8.41,0,0,0-8.51,8.5C1.9,22.51,5.92,26,12,31.37Zm-.93-12.52h3.5V15.36h3.49v3.49h3.49v3.49H18.05v3.49H14.56V22.34h-3.5V18.85Z" transform="translate(-1.9 -8.24)"/></svg>