<?xml version="1.0" encoding="utf-8"?>
<!-- Generator: Adobe Illustrator 25.2.0, SVG Export Plug-In . SVG Version: 6.00 Build 0)  -->
<svg version="1.1" id="Layer_1" xmlns="http://www.w3.org/2000/svg" xmlns:xlink="http://www.w3.org/1999/xlink" x="0px" y="0px"
	 viewBox="0 0 32 42" style="enable-background:new 0 0 32 42;" xml:space="preserve">
<style type="text/css">
	.st0{display:none;fill:#76AAEF;}
	.st1{display:none;}
	.st2{display:inline;fill:#76AAEF;}
	.st3{fill:#76AAEF;}
	.st4{display:inline;fill:#77ACF1;}
</style>
<path class="st0" d="M0.6,19.8v-14H27l-4.2-4.2L24.4,0l7,7l-7,7l-1.6-1.6L27,8.2H3v11.7H0.6V19.8z"/>
<path class="st0" d="M0,35l7-7l1.6,1.6l-4.2,4.2h24V22.2h2.3v14H4.5l4.2,4.2L7,42L0,35z"/>
<g id="XMLID_481_" class="st1">
	<path id="XMLID_482_" class="st2" d="M12,31.4c0.5,0.5,1.1,0.9,1.6,1.4c0,0,0,0,0,0l1.8,1.6c0.2,0.2,0.6,0.3,0.9,0.3
		c0.3,0,0.6-0.1,0.9-0.3l1.8-1.6c0,0,0,0,0,0c3.6-3.2,6.4-5.7,8.3-8.1c2.3-2.8,3.4-5.3,3.4-8c0-4.8-3.7-8.5-8.5-8.5
		c-2.1,0-4.3,0.8-5.9,2.2c-1.6-1.4-3.7-2.2-5.9-2.2c-4.8,0-8.5,3.7-8.5,8.5C1.9,22.5,5.9,26,12,31.4z M11.1,18.8h3.5v-3.5H18v3.5
		h3.5v3.5H18v3.5h-3.5v-3.5h-3.5L11.1,18.8L11.1,18.8z"/>
</g>
<g id="_34._Health_Care" class="st1">
	<path class="st2" d="M31.4,20.7c-2-1.4-4.8-1-6.4,0.8l-3.1,3.6c-0.6-1.5-2-2.6-3.7-2.6h-0.9c-0.5,0-1-0.1-1.4-0.4
		c-3.6-2.4-8.5-1.9-11.5,1.1L1,26.7c-0.4,0.4-0.4,1,0,1.4s1,0.4,1.4,0l0,0l3.5-3.5c2.4-2.4,6.2-2.8,9.1-0.9c0.7,0.5,1.6,0.7,2.5,0.7
		h0.9c1.1,0,2,0.9,2,2h-6.8c-0.5,0-1,0.4-1,1s0.4,1,1,1h7.8c0.3,0,0.5-0.1,0.7-0.3l0,0l4.6-5.2c0.7-0.8,1.9-1.2,2.9-0.9l-6.9,9.2
		c-0.6,0.7-1.4,1.2-2.3,1.2h-8.1c-1.3,0-2.5,0.5-3.5,1.4l-0.8,0.8c-0.4,0.4-0.4,1,0,1.4c0,0,0,0,0,0c0.4,0.4,1,0.4,1.4,0
		c0,0,0,0,0,0l0.8-0.8c0.5-0.5,1.3-0.9,2.1-0.9h8.1c1.5,0,3-0.7,3.9-2l7.6-10.1c0.1-0.2,0.2-0.5,0.1-0.8
		C31.8,21.1,31.7,20.8,31.4,20.7z"/>
	<path class="st2" d="M22.2,18.6h-3.9c-0.5,0-1-0.4-1-1v-2.9h-2.9c-0.5,0-1-0.4-1-1V9.8c0-0.5,0.4-1,1-1h2.9V5.9c0-0.5,0.4-1,1-1
		h3.9c0.5,0,1,0.4,1,1v2.9h2.9c0.5,0,1,0.4,1,1v3.9c0,0.5-0.4,1-1,1h-2.9v2.9C23.1,18.2,22.7,18.6,22.2,18.6z M19.2,16.7h2v-2.9
		c0-0.5,0.4-1,1-1h2.9v-2h-2.9c-0.5,0-1-0.4-1-1V6.9h-2v2.9c0,0.5-0.4,1-1,1h-2.9v2h2.9c0.5,0,1,0.4,1,1V16.7z"/>
</g>
<g id="_27._Video_Conference" class="st1">
	<path class="st2" d="M27.5,16.9c-0.3-0.1-0.6,0-0.8,0.2L22,22.4v-3.2c0-1.2-1-2.2-2.2-2.2H6.3c-1.2,0-2.2,1-2.2,2.2v10.5
		c0,1.2,1,2.2,2.2,2.2l0,0h13.5c1.2,0,2.2-1,2.2-2.2l0,0v-3.3l4.7,5.2c0.1,0.2,0.3,0.3,0.6,0.3c0.1,0,0.2,0,0.3-0.1
		c0.3-0.1,0.5-0.4,0.5-0.7V17.6C28,17.3,27.8,17,27.5,16.9z M20.5,29.6c0,0.4-0.3,0.7-0.7,0.7H6.3c-0.4,0-0.7-0.3-0.7-0.7V19.1
		c0-0.4,0.3-0.7,0.7-0.7h13.5c0.4,0,0.7,0.3,0.7,0.7V29.6z M26.5,29.1l-4.2-4.8l4.2-4.8V29.1z"/>
	<path class="st2" d="M14.5,28.9h-3c-0.4,0-0.7-0.3-0.7-0.7v-1.5H9.3c-0.4,0-0.7-0.3-0.7-0.7v-3c0-0.4,0.3-0.7,0.7-0.7h1.5v-1.5
		c0-0.4,0.3-0.7,0.7-0.7h3c0.4,0,0.7,0.3,0.7,0.7v1.5h1.5c0.4,0,0.7,0.3,0.7,0.7v3c0,0.4-0.3,0.7-0.7,0.7h-1.5v1.5
		C15.3,28.5,14.9,28.9,14.5,28.9z M12.3,27.4h1.5v-1.5c0-0.4,0.3-0.7,0.7-0.7H16v-1.5h-1.5c-0.4,0-0.7-0.3-0.7-0.7v-1.5h-1.5v1.5
		c0,0.4-0.3,0.7-0.7,0.7H10v1.5h1.5c0.4,0,0.7,0.3,0.7,0.7V27.4z"/>
	<path class="st2" d="M24.2,17.6L24.2,17.6c-0.4,0-0.6-0.2-0.7-0.5l-0.6-1.7h-6.2c-1.2,0-2.2-1-2.2-2.2v-3c0-1.2,1-2.2,2.2-2.2h9
		c1.2,0,2.2,1,2.2,2.2v3c0,1.1-0.7,2-1.8,2.2l-1.3,1.9C24.7,17.5,24.5,17.6,24.2,17.6z M16.7,9.4c-0.4,0-0.7,0.3-0.7,0.7v3
		c0,0.4,0.3,0.7,0.7,0.7h6.7c0.3,0,0.6,0.2,0.7,0.5l0.3,0.8l0.7-1c0.1-0.2,0.4-0.3,0.6-0.3c0.4,0,0.7-0.3,0.7-0.7v-3
		c0-0.4-0.3-0.7-0.7-0.7H16.7z"/>
	<path class="st2" d="M18.2,12.4c-0.4,0-0.7-0.3-0.7-0.7c0-0.4,0.3-0.7,0.7-0.7l0,0c0.4,0,0.7,0.3,0.7,0.7
		C19,12.1,18.7,12.4,18.2,12.4z"/>
	<path class="st2" d="M21.2,12.4c-0.4,0-0.7-0.3-0.7-0.7c0-0.4,0.3-0.7,0.7-0.7l0,0c0.4,0,0.7,0.3,0.7,0.7
		C22,12.1,21.7,12.4,21.2,12.4z"/>
	<path class="st2" d="M24.2,12.4c-0.4,0-0.7-0.3-0.7-0.7c0-0.4,0.3-0.7,0.7-0.7l0,0c0.4,0,0.7,0.3,0.7,0.7
		C25,12.1,24.6,12.4,24.2,12.4z"/>
</g>
<path id="heart--health_1_" class="st0" d="M31.2,34.9h-0.7c0-6.4-4.8-12.2-11.4-13.8c-0.1,0-0.3-0.2-0.3-0.3c0-0.2,0.1-0.3,0.2-0.4
	c2.9-1.3,4.7-4.1,4.7-7.2c0-4.4-3.6-7.9-7.9-7.9c-4.4,0-7.9,3.6-7.9,7.9c0,3.1,1.8,6,4.7,7.2c0.1,0.1,0.2,0.2,0.2,0.4
	c0,0.2-0.1,0.3-0.3,0.3C6,22.7,1.2,28.5,1.2,34.9H0.5c0-6.5,4.6-12.3,11-14.2c-2.6-1.5-4.3-4.4-4.3-7.5c0-4.8,3.9-8.6,8.6-8.6
	c4.8,0,8.6,3.9,8.6,8.6c0,3.1-1.7,5.9-4.3,7.5C26.6,22.6,31.2,28.4,31.2,34.9z M15.9,34.3c-0.1,0-0.2,0-0.3-0.1l-4-4
	c-0.5-0.5-0.8-1.2-0.8-1.9c0-0.7,0.3-1.4,0.8-1.9c0.5-0.5,1.2-0.8,1.9-0.8c0,0,0,0,0,0c0.7,0,1.4,0.3,1.9,0.8l0.4,0.4l0.4-0.4
	c1-1,2.8-1,3.9,0c0.5,0.5,0.8,1.2,0.8,2c0,0.7-0.3,1.4-0.8,1.9l-4,4C16,34.2,16,34.3,15.9,34.3z M13.6,26.3
	C13.6,26.3,13.6,26.3,13.6,26.3c-0.5,0-1,0.2-1.4,0.6c-0.4,0.4-0.6,0.9-0.6,1.4c0,0.5,0.2,1,0.6,1.4l3.7,3.7l3.7-3.7
	c0.4-0.4,0.6-0.9,0.6-1.4c0-0.5-0.2-1.1-0.6-1.5c-0.8-0.8-2.1-0.8-2.8,0l-0.6,0.6c-0.1,0.1-0.4,0.1-0.5,0L15,26.8
	C14.6,26.5,14.1,26.3,13.6,26.3z"/>
<path class="st3" d="M31.4,21.4c-0.2-0.3-0.6-0.6-1-0.6c-2.5,0-4.8,1.1-6.3,3.1l-1,1.3c-1.2,1.5-3.1,2.2-5,2.2h-3.4
	c-0.7,0-1.1-0.4-1.1-1.1s0.4-1.1,1.1-1.1h2.1c1.8,0,3.5-1.5,3.5-3.2V22c0-0.6-0.6-1.1-1.1-1.1h-6.8c-4,0-7.3,1.8-9.1,4.7l-3,4.7
	c-0.2,0.3-0.2,0.8,0,1.1l3.4,5.6c0.1,0.2,0.4,0.4,0.7,0.6c0.1,0,0.1,0,0.2,0c0.2,0,0.4-0.1,0.7-0.2c4.2-2.8,9.2-4.2,14.2-4.2
	c3.7,0,7-2,8.8-5.3l3-5.4C31.5,22.2,31.5,21.7,31.4,21.4z"/>
<path class="st3" d="M12.4,18.6L12.4,18.6h6.8c1.8,0,3.4,1.5,3.4,3.2v0.2l0,0l6.9-7.2c2.7-2.8,2.7-7.2,0-9.9c-1.3-1.2-3-2-4.8-2
	s-3.6,0.8-4.9,2.1l-0.6,0.6l-0.6-0.6c-1.3-1.3-3-2.1-4.9-2.1c-1.8,0-3.5,0.8-4.8,2.1c-2.7,2.8-2.7,7.2,0,9.9L12.4,18.6z M13.6,11.9
	h1.8l1.9-1.9c0.2-0.2,0.6-0.3,1-0.3c0.3,0.1,0.7,0.3,0.8,0.6l1.1,2.2l1.3-3.2c0.1-0.3,0.4-0.7,0.9-0.7s0.8,0.1,1,0.4l2.2,3.4
	c0.3,0.6,0.2,1.2-0.3,1.6c-0.6,0.3-1.2,0.2-1.6-0.3l-1-1.6l-1.5,3.6c-0.1,0.4-0.6,0.8-1,0.8l0,0c-0.4,0-0.8-0.2-1-0.7l-1.6-3.1
	l-1.1,1.1c-0.2,0.3-0.4,0.4-0.8,0.4h-2.2c-0.7,0-1.1-0.4-1.1-1.1S12.9,11.9,13.6,11.9z"/>
<g id="_5._Smartphone_Heart_Rate" class="st1">
	<path class="st4" d="M16,36.6H5.6c-2.6,0-4.8-2.1-4.8-4.8V9.4c0-2.6,2.1-4.8,4.8-4.8H16c2.6,0,4.8,2.1,4.8,4.8v0.2c0,0.6-0.4,1-1,1
		s-1-0.4-1-1V9.4c0-1.5-1.2-2.8-2.8-2.8c0,0,0,0,0,0H5.6C4,6.6,2.8,7.9,2.8,9.4l0,0v22.4c0,1.5,1.2,2.8,2.8,2.8c0,0,0,0,0,0H16
		c1.5,0,2.8-1.2,2.8-2.8v0v-0.2c0-0.6,0.4-1,1-1s1,0.4,1,1v0.2C20.8,34.5,18.6,36.6,16,36.6z"/>
	<path class="st4" d="M10.8,32.6c-1.1,0-2-0.9-2-2s0.9-2,2-2s2,0.9,2,2S11.9,32.6,10.8,32.6z M10.8,30.6L10.8,30.6z M10.8,30.6
		L10.8,30.6z M10.8,30.6L10.8,30.6z M10.8,30.6L10.8,30.6z M10.8,30.6L10.8,30.6z M10.8,30.6L10.8,30.6z M10.8,30.6L10.8,30.6z
		 M10.8,30.6L10.8,30.6z"/>
	<path class="st4" d="M13.8,10.6h-6c-0.6,0-1-0.4-1-1c0-0.6,0.4-1,1-1h6c0.6,0,1,0.4,1,1C14.8,10.2,14.3,10.6,13.8,10.6z"/>
	<path class="st4" d="M19.8,28.6c-0.2,0-0.4,0-0.5-0.1l-1.5-0.9c-2.5-1.5-4.5-3.5-6-6c-0.7-1.1-1-2.4-1.1-3.8c0-2.9,2.3-5.3,5.2-5.3
		c1.4,0,2.8,0.6,3.8,1.6l0,0.1l0-0.1c2-2.1,5.3-2.1,7.4-0.1c1,1,1.6,2.4,1.6,3.8c0,1.3-0.4,2.6-1.1,3.8c-1.5,2.5-3.5,4.5-6,6
		l-1.5,0.9C20.1,28.6,19.9,28.7,19.8,28.6z M16,14.6c-1.8,0-3.2,1.5-3.2,3.2c0,1,0.3,1.9,0.8,2.8c1.3,2.1,3.1,3.9,5.2,5.2l1,0.6
		l1-0.6c2.1-1.3,3.9-3.1,5.2-5.2c0.5-0.8,0.8-1.8,0.8-2.8c0-1.8-1.5-3.2-3.3-3.2c-0.8,0-1.6,0.4-2.2,0.9l-0.8,0.8
		c-0.4,0.4-1,0.4-1.4,0c0,0,0,0,0,0l-0.7-0.8C17.7,15,16.9,14.7,16,14.6z"/>
	<path class="st4" d="M20.8,23.6h-0.2c-0.3,0-0.5-0.2-0.7-0.4L18.5,21l-1.7,1.1c-0.5,0.3-1.1,0.5-1.7,0.5H9.8c-0.6,0-1-0.4-1-1
		s0.4-1,1-1h5.4c0.2,0,0.4-0.1,0.6-0.2l2.5-1.7c0.5-0.3,1.1-0.2,1.4,0.3l1.4,2.1l2.6-2c0.5-0.4,1.2-0.6,1.8-0.6h4.3c0.6,0,1,0.4,1,1
		c0,0.6-0.4,1-1,1h-4.3c-0.2,0-0.4,0.1-0.6,0.2l-3.5,2.6C21.2,23.6,21,23.6,20.8,23.6z"/>
</g>
</svg>
