<svg width="35" height="15" viewBox="0 0 35 15" fill="none" xmlns="http://www.w3.org/2000/svg">
<path d="M6.397 2.0827C5.98575 2.5727 5.3306 2.96098 4.67653 2.90411C4.59013 2.24348 4.91607 1.53583 5.29232 1.09723C5.70247 0.597388 6.41997 0.238638 7.00185 0.209106C7.07075 0.899263 6.80169 1.57739 6.3981 2.0827H6.397ZM6.99528 3.03426C6.04482 2.9763 5.22888 3.58005 4.77825 3.58005C4.31778 3.58005 3.62763 3.0627 2.87622 3.0802C1.90169 3.09223 0.990598 3.64895 0.495129 4.54473C-0.536277 6.32645 0.22716 8.96458 1.2181 10.4171C1.70263 11.1346 2.28232 11.921 3.04685 11.8991C3.76982 11.8696 4.06075 11.4211 4.93247 11.4211C5.81513 11.4211 6.0656 11.8991 6.8356 11.8816C7.62638 11.8696 8.12732 11.1641 8.61185 10.4466C9.16419 9.63177 9.39169 8.83333 9.40372 8.79396C9.39169 8.77646 7.87138 8.1902 7.86044 6.4238C7.84841 4.94177 9.05591 4.2363 9.10732 4.19583C8.42919 3.17098 7.35841 3.0627 6.99419 3.03536L6.99528 3.03426ZM12.4815 1.02833V11.8072H14.1386V8.12239H16.43C18.5201 8.12239 19.9901 6.66989 19.9901 4.57317C19.9901 2.47208 18.5497 1.02942 16.4868 1.02942L12.4815 1.02833ZM14.1386 2.44145H16.0472C17.4822 2.44145 18.3036 3.21583 18.3036 4.57755C18.3036 5.93927 17.4822 6.7202 16.0362 6.7202H14.1386V2.44145ZM23.0078 11.8871C24.0501 11.8871 25.0126 11.3577 25.4523 10.5133H25.4873V11.8072H27.0186V6.4402C27.0186 4.89145 25.7892 3.88411 23.8915 3.88411C22.1372 3.88411 20.8378 4.90348 20.7929 6.29911H22.2794C22.4051 5.63302 23.0089 5.19989 23.8467 5.19989C24.8606 5.19989 25.425 5.67786 25.425 6.55614V7.14786L23.3633 7.27364C21.4372 7.39286 20.4003 8.18474 20.4003 9.56942C20.4003 10.9651 21.4722 11.8882 23.0089 11.8882L23.0078 11.8871ZM23.4584 10.6107C22.5747 10.6107 22.0114 10.183 22.0114 9.52896C22.0114 8.85083 22.5528 8.45161 23.5831 8.38817L25.4239 8.27442V8.88364C25.4239 9.89317 24.5751 10.6107 23.4518 10.6107H23.4584ZM29.0639 14.7407C30.675 14.7407 31.434 14.114 32.0947 12.2283L34.9997 3.9913H33.3197L31.3717 10.3536H31.3367L29.3887 3.9913H27.6573L30.4606 11.8357L30.3118 12.3136C30.0548 13.1176 29.6458 13.4293 28.9162 13.4293C28.785 13.4293 28.5345 13.4129 28.4317 13.4019V14.6958C28.5279 14.7232 28.9392 14.7352 29.0584 14.7352L29.0639 14.7407Z" fill="white"/>
</svg>
