<svg width="37" height="15" viewBox="0 0 37 15" fill="none" xmlns="http://www.w3.org/2000/svg">
<path d="M36.9995 3.41639L32.1698 14.2077H30.676L32.4705 10.4314L29.2908 3.41523H30.8621L33.1631 8.79295H33.1931L35.4212 3.41523L36.9995 3.41639ZM16.9339 6.75333V11.1251H15.4158V0.333827H19.4326C20.3861 0.30769 21.3146 0.640722 22.0342 1.26692C22.7452 1.85083 23.1361 2.67639 23.1245 3.54936C23.1294 3.98868 23.0337 4.42329 22.8447 4.81992C22.6557 5.21654 22.3784 5.56465 22.0342 5.83758C21.3358 6.45155 20.4686 6.75333 19.4326 6.75333H16.9339ZM16.9282 1.66467V5.42827H19.4696C20.0229 5.44811 20.5617 5.24912 20.9692 4.87442C21.3612 4.52523 21.5774 4.04886 21.5774 3.55514C21.5774 3.05564 21.3601 2.57927 20.9692 2.23586C20.7696 2.04588 20.5343 1.89746 20.2768 1.7992C20.0194 1.70095 19.745 1.65483 19.4696 1.66352L16.9282 1.66467ZM26.1654 3.41639C27.1286 3.41639 27.894 3.68695 28.4536 4.22345C29.0133 4.75995 29.2908 5.49417 29.2908 6.42727V10.8892H28.0386V9.8833H27.9842C27.4419 10.7089 26.7251 11.124 25.8278 11.124C25.0566 11.124 24.4183 10.8892 23.9003 10.4129C23.6504 10.1916 23.4515 9.91876 23.3173 9.61313C23.1832 9.30749 23.117 8.97637 23.1233 8.64264C23.1233 7.8957 23.3939 7.30023 23.942 6.85392C24.4842 6.41455 25.2127 6.19139 26.1215 6.19139C26.8985 6.19139 27.5367 6.3417 28.0362 6.63655V6.3232C28.0379 6.09574 27.9908 5.87057 27.8983 5.66277C27.8058 5.45498 27.6699 5.26937 27.4997 5.11839C27.1571 4.79762 26.7042 4.62085 26.2348 4.62467C25.5064 4.62467 24.9282 4.9438 24.5004 5.58205L23.35 4.83511C23.9824 3.8893 24.9213 3.41408 26.162 3.41408L26.1654 3.41639ZM24.4738 8.67386C24.4713 8.8452 24.5092 9.01474 24.5845 9.16865C24.6599 9.32256 24.7705 9.45649 24.9074 9.55955C25.1965 9.79427 25.5584 9.92145 25.9249 9.91452C26.473 9.91452 27.0026 9.68558 27.3945 9.28205C27.8096 8.89702 28.0455 8.35474 28.0455 7.78817C27.6362 7.45055 27.0696 7.28174 26.3412 7.28174C25.8047 7.28174 25.3653 7.4147 25.0103 7.67949C24.6554 7.95005 24.4738 8.27611 24.4738 8.6727V8.67386ZM6.29297 0.333827C7.84974 0.315051 9.35517 0.890182 10.5029 1.94217L8.70838 3.70083C8.05284 3.09264 7.18702 2.76231 6.29297 2.7793C5.51277 2.78312 4.75313 3.02991 4.11967 3.48538C3.4862 3.94085 3.01037 4.58236 2.75832 5.32073C2.49348 6.08547 2.49348 6.91706 2.75832 7.6818C3.01037 8.42018 3.4862 9.06168 4.11967 9.51715C4.75313 9.97262 5.51277 10.2194 6.29297 10.2232C7.14166 10.2232 7.87125 10.0128 8.43666 9.63933C8.76195 9.4275 9.04072 9.15167 9.25599 8.82866C9.47127 8.50564 9.61856 8.14218 9.68887 7.76042H6.29181V5.3878H12.2234C12.2962 5.80289 12.3321 6.21914 12.3321 6.64002C12.3321 8.51892 11.6452 10.1088 10.4589 11.1806C9.41716 12.1206 7.99034 12.6675 6.29181 12.6675C5.13245 12.6735 3.99392 12.3595 3.00148 11.7601C2.00904 11.1608 1.20114 10.2993 0.66666 9.27048C0.227226 8.41312 -0.00195313 7.46353 -0.00195312 6.50011C-0.00195313 5.53669 0.227226 4.5871 0.66666 3.72973C1.2005 2.70187 2.00729 1.84102 2.99841 1.24173C3.98954 0.642444 5.12666 0.327909 6.28488 0.332672L6.29297 0.333827Z" fill="white"/>
</svg>
