<svg xmlns="http://www.w3.org/2000/svg" xmlns:xlink="http://www.w3.org/1999/xlink" viewBox="0 0 2657.94 1254.36"><defs><style>.cls-1{isolation:isolate;}.cls-2{fill:url(#linear-gradient);}.cls-3{fill:url(#linear-gradient-2);}.cls-4,.cls-9{fill:#fff;}.cls-10,.cls-5{fill:none;}.cls-5{stroke:#7993cb;stroke-width:0.25px;}.cls-6,.cls-9{opacity:0.61;}.cls-7{opacity:0.48;}.cls-7,.cls-9{mix-blend-mode:overlay;}.cls-8{opacity:0.4;}</style><linearGradient id="linear-gradient" x1="2972" y1="1306" x2="2972" y2="174" gradientTransform="matrix(-1, 0, 0, 1, 4339.75, -51.64)" gradientUnits="userSpaceOnUse"><stop offset="0" stop-color="#080a0a" stop-opacity="0"/><stop offset="1" stop-color="#080a0a"/></linearGradient><linearGradient id="linear-gradient-2" x1="1309" y1="902" x2="1309" y2="654" gradientTransform="translate(2648.75 1719.36) rotate(180)" xlink:href="#linear-gradient"/></defs><g class="cls-1"><g id="Layer_1" data-name="Layer 1"><rect class="cls-2" x="532.75" y="122.36" width="1670" height="1132"/><rect class="cls-3" x="504.75" y="817.36" width="1670" height="248"/><path class="cls-4" d="M77.36,805.71l-18.8-10.86L77.36,784a2.38,2.38,0,0,0,.87-3.24L71,768.17a2.37,2.37,0,0,0-3.24-.86l-18.8,10.85V756.45a2.37,2.37,0,0,0-2.37-2.37H32a2.37,2.37,0,0,0-2.37,2.37v21.71L10.84,767.31a2.37,2.37,0,0,0-3.24.86L.34,780.76A2.36,2.36,0,0,0,1.21,784L20,794.85,1.21,805.71A2.36,2.36,0,0,0,.34,809L7.6,821.53a2.37,2.37,0,0,0,3.24.87l18.81-10.85v21.71A2.37,2.37,0,0,0,32,835.63H46.55a2.37,2.37,0,0,0,2.37-2.37V811.55l18.8,10.85a2.36,2.36,0,0,0,3.24-.87L78.23,809A2.38,2.38,0,0,0,77.36,805.71ZM39.55,777.49a2.28,2.28,0,1,1-2.28,2.27A2.27,2.27,0,0,1,39.55,777.49Zm-.76,5.5a.31.31,0,0,1,0-.62h1.52a.31.31,0,1,1,0,.62Zm1.27.82L40,798.48l-.09,0a.57.57,0,0,0-.25.08l-.52.27h0L39,783.81c0-.4.23-.49.51-.49S40.06,783.41,40.06,783.81Zm-9.37,8.09c-.45-.11-1.47-.42-1.54-1a2.62,2.62,0,0,1-3.74-.66,2.9,2.9,0,0,1-2.09.12c-.49-.17-1.68-.83-1.61-1.45A5.05,5.05,0,0,1,18.36,787c3.5-.33,8.41-2.44,11.66-3.75a14.53,14.53,0,0,0,2.6-1.42,3.12,3.12,0,0,1,2.47-.76,2.48,2.48,0,0,1,2,1.66,3.88,3.88,0,0,1-.57,2.23c-.32.57-1.12,1.2-.23,1.65a6.46,6.46,0,0,0,2.31.12l0,2.49a8.59,8.59,0,0,1-.91,1.95,1.23,1.23,0,0,1-1.13.66c-.19,0-.43-.21-.58-.22s-.17,0-.42.18a2.17,2.17,0,0,1-1.62.18c-.53-.12-.74-.43-1.22-.32A4,4,0,0,1,30.69,791.9Zm1.3,3.35a4.22,4.22,0,0,1,2.18-2,3.74,3.74,0,0,1,1.57-.45c.37,0,1.37-.3,1.7-.07s0,1.1-.27,1.36a8.08,8.08,0,0,1-2.67,1.34c-.34.12-1.21.6-.51,1.08a14.24,14.24,0,0,0,2.11,1.1c.48.22,1.49.67,2.9,1.26A24.38,24.38,0,0,1,36.67,800l-1.36-.59a8.33,8.33,0,0,1-3-2A2.25,2.25,0,0,1,32,795.25ZM39.9,826a.31.31,0,0,1-.62,0l0-2.92.31-.18a.52.52,0,0,0,.16.06.53.53,0,0,0,.18,0Zm.71-1.88c-.12.36-.29.47-.31.46a1.74,1.74,0,0,0-.41-1.7c0-.06-.14-.15-.18-.21.15-.14.2-.23.34-.38a2.92,2.92,0,0,1,.21.32A1.86,1.86,0,0,1,40.61,824.15Zm.18-2.76a13.5,13.5,0,0,0-1.64,1.52,1.77,1.77,0,0,0-.41,1.7s-.19-.1-.31-.46a1.86,1.86,0,0,1,.35-1.51c.5-1.09,3.16-2.21,1-3.46.11-.06.42-.36.62-.53a2.88,2.88,0,0,1,.87,1.09A1.49,1.49,0,0,1,40.79,821.39Zm-1.45-.08-.09-.09v-1.53l.42-.36a2.06,2.06,0,0,0,.26,0v1.91a.69.69,0,0,0-.49.09h0Zm2.21-3.9a4.69,4.69,0,0,1-.73.69c-.49.38-1,.68-1.41,1-1.58.83-1,1.75-.12,2.51-.08.18-.33.36-.36.44-.17-.15-.49-.49-.68-.65a1.41,1.41,0,0,1-.49-1.65,3.62,3.62,0,0,1,1.15-1.32c.43-.36.9-.68,1.32-1s.82-.89.73-1a11.37,11.37,0,0,0-1.06-.6,9.45,9.45,0,0,0,1.09-.68l0,0a1.64,1.64,0,0,1,.9,1A1.26,1.26,0,0,1,41.55,817.41Zm-2.21.25,0,0v0l-.06-.05v-1.5l.49-.2.12,0,.1,0v1.55l-.1,0a1.85,1.85,0,0,0-.45.21Zm2.87-3.73a4,4,0,0,1-.94.79c-.64.4-1.25.67-1.85,1a8.81,8.81,0,0,0-1.34.72c-.08.06.32.67.73,1l.52.42-.83.5a2.83,2.83,0,0,1-.28-.2,4.69,4.69,0,0,1-.73-.69,1.28,1.28,0,0,1-.37-1.31c.41-1.06,1.31-1,1.81-1.37s1.18-.63,1.7-1,.91-.9.73-.85a5.43,5.43,0,0,0-1.45-.84c.47-.21,1.49-.75,1.49-.75a2.82,2.82,0,0,1,1,1A1.38,1.38,0,0,1,42.21,813.93Zm-2.73.18a.65.65,0,0,0-.27-.15v-1.77l.43-.13a.76.76,0,0,0,.24.17h0l.08,0V814h0A3.2,3.2,0,0,0,39.48,814.11Zm2.92-3.66a3.72,3.72,0,0,1-1.15.68c-.69.31-1.37.58-2,.88a6,6,0,0,0-1.55.88c-.18,0,.18.51.73.85.27.18.55.34.84.51a11,11,0,0,0-1.14.67l-.34-.2a4,4,0,0,1-.94-.79,1.39,1.39,0,0,1-.23-1.67c.72-1,1.39-1,2.07-1.44s1.35-.63,2-.94a2.7,2.7,0,0,0,.76-.46.69.69,0,0,0,.12-.14,3.32,3.32,0,0,0-.47-.17c-.28-.09-.58-.17-.88-.25.61-.29,2-.83,2.09-.88a1.48,1.48,0,0,1,.61.63A1.45,1.45,0,0,1,42.4,810.45Zm-3.09-.26-.12-.15V809l.78-.22v1.32l-.08,0-.54.17ZM44,806.25a2,2,0,0,1-.54.78,6.9,6.9,0,0,1-2.27,1.16c-.76.25-1.5.42-2.21.62l-1.06.3a3.86,3.86,0,0,0-.47.17.69.69,0,0,0,.12.14,2.7,2.7,0,0,0,.76.46l.93.43-.13.08c-.53.22-1.08.41-1.6.64a3.2,3.2,0,0,1-.92-.58,1.45,1.45,0,0,1-.51-1.84c.43-.79,1-.74,1.36-.9l1.1-.35c.74-.23,1.46-.4,2.12-.65a5.66,5.66,0,0,0,1.69-.86l0,0a2.9,2.9,0,0,0-.46-.28,5.55,5.55,0,0,0-1.36-.44c.42-.08,2.29-.46,2.76-.64a2.39,2.39,0,0,1,.53.59A1.46,1.46,0,0,1,44,806.25Zm-4.87-1.09a5.29,5.29,0,0,0,.81-.08v1.59a2.25,2.25,0,0,0-.8.17Zm6.1-2.41A1.79,1.79,0,0,1,44,804a10.33,10.33,0,0,1-1,.34,20.76,20.76,0,0,1-2.06.39,13.48,13.48,0,0,0-3.88.78,2.9,2.9,0,0,0-.46.28l0,0a5.54,5.54,0,0,0,1.69.86l.56.19-.7.29-.28.09a8.76,8.76,0,0,1-1.24.46,5.2,5.2,0,0,1-1.12-.71,2,2,0,0,1-.54-.78,1.5,1.5,0,0,1,.12-1.2,2.77,2.77,0,0,1,1.19-1,12.72,12.72,0,0,1,4.36-1,16.48,16.48,0,0,0,1.86-.39l.53-.17-.36-.17a11.36,11.36,0,0,0-1.46-.55l-1.32-.49a17.69,17.69,0,0,0,2.42-1.1,11.23,11.23,0,0,1,1.15.48C43.79,800.79,45.6,801.65,45.26,802.75Zm-6.12-1.11.55-.23.3,0v1.41l-.15,0-.68.19Zm7.59-4.26a8.33,8.33,0,0,1-3,2c-.53.24-1.65.73-3.22,1.36-.8.32-1.69.67-2.72,1a12.11,12.11,0,0,0-1.47.55l-.35.17.53.17c.42.12.87.21,1.33.3a7.49,7.49,0,0,0-2,1.18.86.86,0,0,0-.14.13L35,804a1.79,1.79,0,0,1-1.23-1.28c-.34-1.1,1.47-2,1.76-2.1a14.88,14.88,0,0,1,1.63-.65c1-.35,1.85-.72,2.62-1,1.54-.64,2.64-1.13,3.15-1.36a14.24,14.24,0,0,0,2.11-1.1c.7-.48-.16-1-.51-1.08a7.94,7.94,0,0,1-2.66-1.34c-.29-.26-.74-1-.28-1.36s1.32,0,1.7.07a3.74,3.74,0,0,1,1.57.45,4.26,4.26,0,0,1,2.18,2A2.25,2.25,0,0,1,46.73,797.38Zm9-7a2.87,2.87,0,0,1-2.08-.12,2.63,2.63,0,0,1-3.75.66c-.07.57-1.09.88-1.54,1a3.94,3.94,0,0,1-2.07-.28c-.49-.11-.7.2-1.22.32a2.2,2.2,0,0,1-1.63-.18c-.25-.13-.15-.2-.41-.18s-.39.19-.58.22c-.51.08-.86-.3-1.14-.66a7.76,7.76,0,0,1-.84-1.77v-2.66a6.5,6.5,0,0,0,2.25-.13c.89-.45.09-1.08-.22-1.65a3.73,3.73,0,0,1-.57-2.23A2.45,2.45,0,0,1,44,781a3.15,3.15,0,0,1,2.48.76,14.19,14.19,0,0,0,2.6,1.42c3.25,1.31,8.15,3.42,11.66,3.75a5.08,5.08,0,0,1-3.36,1.95C57.4,789.54,56.22,790.2,55.72,790.37Z" transform="translate(539.75 124.36)"/><path class="cls-5" d="M2118.08,1097.83C1627.62-86.41,361.85,271-539.69,750.92" transform="translate(539.75 124.36)"/><path class="cls-5" d="M2118.08,1061.1C1557.71-28.43,371,271.94-539.69,722.69" transform="translate(539.75 124.36)"/><path class="cls-5" d="M2118.08,1024.38C1487.8,29.55,380.23,272.85-539.69,694.46" transform="translate(539.75 124.36)"/><path class="cls-5" d="M2118.08,987.65C1417.88,87.52,389.42,273.77-539.69,666.23" transform="translate(539.75 124.36)"/><path class="cls-5" d="M2118.08,950.93C1348,145.5,398.61,274.68-539.69,638" transform="translate(539.75 124.36)"/><path class="cls-5" d="M2118.08,914.2C1278.06,203.48,407.8,275.59-539.69,609.77" transform="translate(539.75 124.36)"/><path class="cls-5" d="M2118.08,877.48C1208.14,261.46,417,276.5-539.69,581.54" transform="translate(539.75 124.36)"/><path class="cls-5" d="M2118.08,840.75C1138.23,319.44,426.18,277.41-539.69,553.31" transform="translate(539.75 124.36)"/><path class="cls-5" d="M2118.08,804c-1049.76-426.61-1682.71-525.7-2657.77-279" transform="translate(539.75 124.36)"/><path class="cls-5" d="M2118.08,767.3C998.4,435.39,444.56,279.24-539.69,496.84" transform="translate(539.75 124.36)"/><path class="cls-5" d="M2118.08,730.58C928.49,493.37,453.75,280.15-539.69,468.61" transform="translate(539.75 124.36)"/><path class="cls-5" d="M2118.08,693.86C858.58,551.35,462.94,281.06-539.69,440.38" transform="translate(539.75 124.36)"/><path class="cls-5" d="M2118.08,657.13C788.66,609.33,472.13,282-539.69,412.15" transform="translate(539.75 124.36)"/><path class="cls-5" d="M2118.08,620.41C718.75,667.31,481.32,282.89-539.69,383.92" transform="translate(539.75 124.36)"/><path class="cls-5" d="M2118.08,583.68C648.84,725.29,490.51,283.8-539.69,355.69" transform="translate(539.75 124.36)"/><path class="cls-5" d="M2118.08,547C578.92,783.27,499.7,284.71-539.69,327.46" transform="translate(539.75 124.36)"/><path class="cls-5" d="M2118.08,510.23C509,841.24,508.89,285.62-539.69,299.23" transform="translate(539.75 124.36)"/><path class="cls-5" d="M2118.08,473.51c-1679,425.71-1600-187-2657.77-202.51" transform="translate(539.75 124.36)"/><path class="cls-5" d="M2118.08,436.78C369.18,957.2,527.27,287.45-539.69,242.77" transform="translate(539.75 124.36)"/><path class="cls-5" d="M2118.08,400.06C299.27,1015.18,536.46,288.36-539.69,214.53" transform="translate(539.75 124.36)"/><path class="cls-5" d="M2118.08,363.33C229.36,1073.16,545.65,289.27-539.69,186.3" transform="translate(539.75 124.36)"/><path class="cls-5" d="M2118.08,326.61C159.44,1131.14,554.84,290.18-539.69,158.07" transform="translate(539.75 124.36)"/><path class="cls-5" d="M2118.08,289.88c-2028.55,899.23-1554,1.21-2657.77-160" transform="translate(539.75 124.36)"/><path class="cls-5" d="M2118.08,253.16C19.62,1247.09,573.22,292-539.69,101.61" transform="translate(539.75 124.36)"/><path class="cls-5" d="M2118.08,216.43C-50.3,1305.07,582.41,292.92-539.69,73.38" transform="translate(539.75 124.36)"/><path class="cls-5" d="M2118.08,179.71C-120.21,1363.05,591.6,293.83-539.69,45.15" transform="translate(539.75 124.36)"/><path class="cls-5" d="M2118.08,143C-190.12,1421,600.79,294.74-539.69,16.92" transform="translate(539.75 124.36)"/><path class="cls-5" d="M2118.08,106.26C-260,1479,610,295.65-539.69-11.31" transform="translate(539.75 124.36)"/><path class="cls-5" d="M2118.08,69.53C-329.95,1537,619.17,296.56-539.69-39.54" transform="translate(539.75 124.36)"/><path class="cls-5" d="M2118.08,32.81C-399.86,1595,628.36,297.48-539.69-67.78" transform="translate(539.75 124.36)"/><path class="cls-5" d="M2118.08-3.92C-469.77,1652.94,637.55,298.39-539.69-96" transform="translate(539.75 124.36)"/><path class="cls-5" d="M2118.08-40.64C-539.69,1710.92,646.74,299.3-539.69-124.24" transform="translate(539.75 124.36)"/><g class="cls-6"><g class="cls-7"><path class="cls-4" d="M1322.47,847.68h-30l-15-25.52,15-25.51h30l15,25.51-15,25.52Zm-29.47-.94h28.94l14.46-24.58-14.46-24.58H1293l-14.46,24.58L1293,846.74Z" transform="translate(539.75 124.36)"/></g><g class="cls-7"><path class="cls-4" d="M1515.66,821h-30l-15-25.52,15-25.51h30l15,25.51-15,25.52Zm-29.47-.94h28.93l14.46-24.58-14.46-24.58h-28.93l-14.46,24.58,14.46,24.58Z" transform="translate(539.75 124.36)"/></g><g class="cls-7"><path class="cls-4" d="M1540.84,859.64h-30l-15-25.51,15-25.52h30l15,25.52-15,25.51Zm-29.47-.93h28.94l14.46-24.58-14.46-24.58h-28.94l-14.46,24.58,14.46,24.58Z" transform="translate(539.75 124.36)"/></g><g class="cls-7"><path class="cls-4" d="M1181.44,907.12h-30l-15-25.52,15-25.51h30l15,25.51-15,25.52Zm-29.46-.93h28.93l14.46-24.59L1180.91,857H1152l-14.46,24.58L1152,906.19Z" transform="translate(539.75 124.36)"/></g><g class="cls-7"><path class="cls-4" d="M1181.44,854.08h-30l-15-25.52,15-25.52h30l15,25.52-15,25.52Zm-29.46-.94h28.93l14.46-24.58L1180.91,804H1152l-14.46,24.58L1152,853.14Z" transform="translate(539.75 124.36)"/></g><g class="cls-7"><path class="cls-4" d="M1181.44,801h-30l-15-25.52,15-25.51h30l15,25.51-15,25.52ZM1152,800.1h28.93l14.46-24.59-14.46-24.58H1152l-14.46,24.58L1152,800.1Z" transform="translate(539.75 124.36)"/></g><g class="cls-7"><path class="cls-4" d="M1134.29,933.64h-30l-15-25.51,15-25.52h30l15,25.52-15,25.51Zm-29.47-.93h28.94l14.46-24.58-14.46-24.59h-28.94l-14.45,24.59,14.45,24.58Z" transform="translate(539.75 124.36)"/></g><g class="cls-7"><path class="cls-4" d="M1134.29,880.6h-30l-15-25.52,15-25.52h30l15,25.52-15,25.52Zm-29.47-.94h28.94l14.46-24.58-14.46-24.58h-28.94l-14.45,24.58,14.45,24.58Z" transform="translate(539.75 124.36)"/></g><g class="cls-7"><path class="cls-4" d="M1228.6,880.6h-30l-15-25.52,15-25.52h30l15,25.52-15,25.52Zm-29.47-.94h28.93l14.46-24.58-14.46-24.58h-28.93l-14.46,24.58,14.46,24.58Z" transform="translate(539.75 124.36)"/></g><g class="cls-7"><path class="cls-4" d="M944.3,873.2h-30l-15-25.51,15-25.52h30l15,25.52-15,25.51Zm-29.47-.93h28.93l14.46-24.58L943.76,823.1H914.83l-14.46,24.59,14.46,24.58Z" transform="translate(539.75 124.36)"/></g><g class="cls-7"><path class="cls-4" d="M1040,880.6h-30l-15-25.52,15-25.52h30l15,25.52-15,25.52Zm-29.46-.94h28.93l14.46-24.58-14.46-24.58h-28.93l-14.47,24.58,14.47,24.58Z" transform="translate(539.75 124.36)"/></g><g class="cls-7"><path class="cls-4" d="M1040,827.55h-30L995,802l15-25.52h30L1055,802l-15,25.51Zm-29.46-.93h28.93L1053.92,802l-14.46-24.59h-28.93L996.06,802l14.47,24.58Z" transform="translate(539.75 124.36)"/></g><g class="cls-7"><path class="cls-4" d="M1087.14,907.12h-30l-15-25.52,15-25.51h30l15,25.51-15,25.52Zm-29.47-.93h28.94l14.46-24.59L1086.61,857h-28.94l-14.45,24.58,14.45,24.59Z" transform="translate(539.75 124.36)"/></g><g class="cls-7"><path class="cls-4" d="M1087.14,854.08h-30l-15-25.52,15-25.52h30l15,25.52-15,25.52Zm-29.47-.94h28.94l14.46-24.58L1086.61,804h-28.94l-14.45,24.58,14.45,24.58Z" transform="translate(539.75 124.36)"/></g><g class="cls-7"><path class="cls-4" d="M1087.14,801h-30l-15-25.52,15-25.51h30l15,25.51-15,25.52Zm-29.47-.93h28.94l14.46-24.59-14.46-24.58h-28.94l-14.45,24.58,14.45,24.59Z" transform="translate(539.75 124.36)"/></g></g><g class="cls-8"><path class="cls-9" d="M-104.21,896.92a21.48,21.48,0,0,0,21.42,21.52,21.46,21.46,0,0,0,21.41-21.52A21.46,21.46,0,0,0-82.79,875.4,21.48,21.48,0,0,0-104.21,896.92Z" transform="translate(539.75 124.36)"/><path class="cls-9" d="M-106.29,816a3.12,3.12,0,0,0,3.11,3.12A3.13,3.13,0,0,0-100,816a3.13,3.13,0,0,0-3.13-3.14A3.13,3.13,0,0,0-106.29,816Z" transform="translate(539.75 124.36)"/><path class="cls-9" d="M-183,879.69a7.62,7.62,0,0,0,7.61,7.64,7.61,7.61,0,0,0,7.61-7.64,7.63,7.63,0,0,0-7.61-7.65A7.64,7.64,0,0,0-183,879.69Z" transform="translate(539.75 124.36)"/><path class="cls-9" d="M-96.28,834a4.7,4.7,0,0,0,4.71,4.69A4.69,4.69,0,0,0-86.89,834a4.7,4.7,0,0,0-4.68-4.72A4.71,4.71,0,0,0-96.28,834Z" transform="translate(539.75 124.36)"/><path class="cls-9" d="M-138.51,833.93a8.73,8.73,0,0,0,8.7,8.76,8.72,8.72,0,0,0,8.72-8.76,8.74,8.74,0,0,0-8.72-8.77A8.74,8.74,0,0,0-138.51,833.93Z" transform="translate(539.75 124.36)"/></g><rect class="cls-10" x="398.81" y="122.36" width="1926.13" height="943"/></g></g></svg>