<svg width="1262" height="675" viewBox="0 0 1262 675" fill="none" xmlns="http://www.w3.org/2000/svg">
<g clip-path="url(#clip0_2077_32948)">
<path fill-rule="evenodd" clip-rule="evenodd" d="M632.261 634.182V690.422H629.309V634.182H632.261Z" fill="white"/>
<path fill-rule="evenodd" clip-rule="evenodd" d="M632.261 577.941V634.182H629.309V577.941H632.261Z" fill="white"/>
<path fill-rule="evenodd" clip-rule="evenodd" d="M632.261 521.703V577.943H629.309V521.703H632.261Z" fill="white"/>
<path fill-rule="evenodd" clip-rule="evenodd" d="M632.261 465.467V521.701H629.309V465.467H632.261Z" fill="white"/>
<path fill-rule="evenodd" clip-rule="evenodd" d="M632.261 409.227V465.467H629.309V409.227H632.261Z" fill="white"/>
<path fill-rule="evenodd" clip-rule="evenodd" d="M632.261 352.986V409.227H629.309V352.986H632.261Z" fill="white"/>
<path fill-rule="evenodd" clip-rule="evenodd" d="M632.261 296.746V352.986H629.309V296.746H632.261Z" fill="white"/>
<path fill-rule="evenodd" clip-rule="evenodd" d="M632.261 240.508V296.748H629.309V240.508H632.261Z" fill="white"/>
<path fill-rule="evenodd" clip-rule="evenodd" d="M632.261 184.268V240.508H629.309V184.268H632.261Z" fill="white"/>
<path fill-rule="evenodd" clip-rule="evenodd" d="M5.27844 566.364L3.31007 570.726L0.75 569.57L2.71838 565.209L5.27844 566.364Z" fill="#316A5B"/>
<path fill-rule="evenodd" clip-rule="evenodd" d="M56.2036 565.632L53.5217 572.971L50.8672 572L53.5491 564.662L56.2036 565.632Z" fill="#346F60"/>
<path fill-rule="evenodd" clip-rule="evenodd" d="M106.101 563.836L102.33 576.741L99.6016 575.944L103.372 563.039L106.101 563.836Z" fill="#3C796A"/>
<path fill-rule="evenodd" clip-rule="evenodd" d="M155.204 560.754L150.314 582.16L147.527 581.523L152.418 560.117L155.204 560.754Z" fill="#47897A"/>
<path fill-rule="evenodd" clip-rule="evenodd" d="M203.875 556.837L198.358 588.632L195.527 588.141L201.045 556.346L203.875 556.837Z" fill="#569D8F"/>
<path fill-rule="evenodd" clip-rule="evenodd" d="M252.681 553.075L247.379 594.94L244.516 594.578L249.818 552.713L252.681 553.075Z" fill="#77C0AE"/>
<path fill-rule="evenodd" clip-rule="evenodd" d="M302.311 550.35L297.981 599.99L295.094 599.738L299.424 550.098L302.311 550.35Z" fill="#99E3CE"/>
<path fill-rule="evenodd" clip-rule="evenodd" d="M353.33 548.908L350.334 603.401L347.43 603.241L350.425 548.748L353.33 548.908Z" fill="#BBF3E2"/>
<path fill-rule="evenodd" clip-rule="evenodd" d="M406.06 548.441L404.35 605.395L401.434 605.307L403.144 548.354L406.06 548.441Z" fill="#D7F8EE"/>
<path fill-rule="evenodd" clip-rule="evenodd" d="M460.518 548.484L459.792 606.428L456.867 606.391L457.593 548.447L460.518 548.484Z" fill="#ECFCF7"/>
<path fill-rule="evenodd" clip-rule="evenodd" d="M516.578 548.671L516.431 606.905L513.5 606.897L513.648 548.664L516.578 548.671Z" fill="#F9FEFD"/>
<path fill-rule="evenodd" clip-rule="evenodd" d="M574.008 548.787V607.07H571.074V548.787H574.008Z" fill="white"/>
<path fill-rule="evenodd" clip-rule="evenodd" d="M690.497 548.787V607.07H687.562V548.787H690.497Z" fill="white"/>
<path fill-rule="evenodd" clip-rule="evenodd" d="M747.923 548.664L748.071 606.897L745.14 606.905L744.992 548.671L747.923 548.664Z" fill="#F9FEFD"/>
<path fill-rule="evenodd" clip-rule="evenodd" d="M803.976 548.447L804.702 606.391L801.777 606.428L801.051 548.484L803.976 548.447Z" fill="#ECFCF7"/>
<path fill-rule="evenodd" clip-rule="evenodd" d="M858.428 548.354L860.138 605.307L857.222 605.395L855.512 548.441L858.428 548.354Z" fill="#D7F8EE"/>
<path fill-rule="evenodd" clip-rule="evenodd" d="M911.143 548.748L914.138 603.241L911.234 603.401L908.238 548.908L911.143 548.748Z" fill="#BBF3E2"/>
<path fill-rule="evenodd" clip-rule="evenodd" d="M962.145 550.098L966.475 599.738L963.588 599.99L959.258 550.35L962.145 550.098Z" fill="#99E3CE"/>
<path fill-rule="evenodd" clip-rule="evenodd" d="M1011.75 552.713L1017.05 594.578L1014.19 594.94L1008.89 553.075L1011.75 552.713Z" fill="#77C0AE"/>
<path fill-rule="evenodd" clip-rule="evenodd" d="M1060.53 556.346L1066.04 588.141L1063.21 588.632L1057.7 556.837L1060.53 556.346Z" fill="#569D8F"/>
<path fill-rule="evenodd" clip-rule="evenodd" d="M1109.15 560.117L1114.04 581.523L1111.26 582.16L1106.37 560.754L1109.15 560.117Z" fill="#47897A"/>
<path fill-rule="evenodd" clip-rule="evenodd" d="M1158.2 563.039L1161.97 575.944L1159.24 576.741L1155.47 563.836L1158.2 563.039Z" fill="#3C796A"/>
<path fill-rule="evenodd" clip-rule="evenodd" d="M1208.02 564.662L1210.7 572L1208.05 572.971L1205.37 565.632L1208.02 564.662Z" fill="#346F60"/>
<path fill-rule="evenodd" clip-rule="evenodd" d="M1258.85 565.209L1260.82 569.57L1258.26 570.726L1256.29 566.364L1258.85 565.209Z" fill="#316A5B"/>
<path fill-rule="evenodd" clip-rule="evenodd" d="M7.12182 509.976L5.43639 513.722L2.86719 512.566L4.55261 508.82L7.12182 509.976Z" fill="#30695A"/>
<path fill-rule="evenodd" clip-rule="evenodd" d="M58.5259 509.406L56.3545 515.354L53.6914 514.382L55.8628 508.434L58.5259 509.406Z" fill="#336D5E"/>
<path fill-rule="evenodd" clip-rule="evenodd" d="M108.831 507.893L105.792 518.301L103.055 517.502L106.093 507.094L108.831 507.893Z" fill="#387566"/>
<path fill-rule="evenodd" clip-rule="evenodd" d="M158.23 505.101L154.17 522.884L151.375 522.246L155.435 504.463L158.23 505.101Z" fill="#428273"/>
<path fill-rule="evenodd" clip-rule="evenodd" d="M207.036 501.174L202.238 528.818L199.398 528.325L204.196 500.682L207.036 501.174Z" fill="#509486"/>
<path fill-rule="evenodd" clip-rule="evenodd" d="M255.756 496.983L250.927 535.102L248.055 534.738L252.883 496.619L255.756 496.983Z" fill="#6AB1A1"/>
<path fill-rule="evenodd" clip-rule="evenodd" d="M305.052 493.559L300.955 540.505L298.059 540.252L302.155 493.307L305.052 493.559Z" fill="#8CD5C2"/>
<path fill-rule="evenodd" clip-rule="evenodd" d="M355.566 491.434L352.656 544.358L349.742 544.198L352.652 491.273L355.566 491.434Z" fill="#ADF0DD"/>
<path fill-rule="evenodd" clip-rule="evenodd" d="M407.724 490.479L406.032 546.694L403.105 546.606L404.797 490.391L407.724 490.479Z" fill="#CDF6EA"/>
<path fill-rule="evenodd" clip-rule="evenodd" d="M461.624 490.261L460.904 547.935L457.969 547.898L458.688 490.225L461.624 490.261Z" fill="#E5FAF4"/>
<path fill-rule="evenodd" clip-rule="evenodd" d="M517.186 490.361L517.039 548.527L514.098 548.519L514.245 490.354L517.186 490.361Z" fill="#F5FDFB"/>
<path fill-rule="evenodd" clip-rule="evenodd" d="M574.195 490.479V548.755H571.25V490.479H574.195Z" fill="#FDFFFE"/>
<path fill-rule="evenodd" clip-rule="evenodd" d="M690.32 490.479V548.755H687.375V490.479H690.32Z" fill="#FDFFFE"/>
<path fill-rule="evenodd" clip-rule="evenodd" d="M747.324 490.354L747.472 548.519L744.531 548.527L744.383 490.361L747.324 490.354Z" fill="#F5FDFB"/>
<path fill-rule="evenodd" clip-rule="evenodd" d="M802.881 490.225L803.6 547.898L800.665 547.935L799.945 490.261L802.881 490.225Z" fill="#E5FAF4"/>
<path fill-rule="evenodd" clip-rule="evenodd" d="M856.774 490.391L858.466 546.606L855.539 546.694L853.848 490.479L856.774 490.391Z" fill="#CDF6EA"/>
<path fill-rule="evenodd" clip-rule="evenodd" d="M908.914 491.273L911.824 544.198L908.909 544.358L906 491.434L908.914 491.273Z" fill="#ADF0DD"/>
<path fill-rule="evenodd" clip-rule="evenodd" d="M959.416 493.307L963.513 540.252L960.616 540.505L956.52 493.559L959.416 493.307Z" fill="#8CD5C2"/>
<path fill-rule="evenodd" clip-rule="evenodd" d="M1008.69 496.619L1013.51 534.738L1010.64 535.102L1005.81 496.983L1008.69 496.619Z" fill="#6AB1A1"/>
<path fill-rule="evenodd" clip-rule="evenodd" d="M1057.37 500.682L1062.17 528.325L1059.33 528.818L1054.54 501.174L1057.37 500.682Z" fill="#509486"/>
<path fill-rule="evenodd" clip-rule="evenodd" d="M1106.14 504.463L1110.2 522.246L1107.4 522.884L1103.34 505.101L1106.14 504.463Z" fill="#428273"/>
<path fill-rule="evenodd" clip-rule="evenodd" d="M1155.48 507.094L1158.52 517.502L1155.78 518.301L1152.74 507.893L1155.48 507.094Z" fill="#387566"/>
<path fill-rule="evenodd" clip-rule="evenodd" d="M1205.71 508.434L1207.88 514.382L1205.21 515.354L1203.04 509.406L1205.71 508.434Z" fill="#336D5E"/>
<path fill-rule="evenodd" clip-rule="evenodd" d="M1257.02 508.82L1258.7 512.566L1256.13 513.722L1254.45 509.976L1257.02 508.82Z" fill="#30695A"/>
<path fill-rule="evenodd" clip-rule="evenodd" d="M63.4579 453.405L62.0493 457.268L59.3789 456.295L60.7875 452.432L63.4579 453.405Z" fill="#30695A"/>
<path fill-rule="evenodd" clip-rule="evenodd" d="M114.923 452.692L113.152 458.776L110.406 457.976L112.178 451.893L114.923 452.692Z" fill="#336D5E"/>
<path fill-rule="evenodd" clip-rule="evenodd" d="M165.289 450.993L162.877 461.561L160.074 460.921L162.485 450.354L165.289 450.993Z" fill="#387566"/>
<path fill-rule="evenodd" clip-rule="evenodd" d="M214.735 447.976L211.617 465.95L208.77 465.456L211.888 447.482L214.735 447.976Z" fill="#428273"/>
<path fill-rule="evenodd" clip-rule="evenodd" d="M263.616 443.828L260.091 471.656L257.211 471.291L260.736 443.463L263.616 443.828Z" fill="#509486"/>
<path fill-rule="evenodd" clip-rule="evenodd" d="M312.467 439.41L309.127 477.682L306.223 477.429L309.563 439.156L312.467 439.41Z" fill="#6AB1A1"/>
<path fill-rule="evenodd" clip-rule="evenodd" d="M361.982 435.789L359.399 482.84L356.477 482.679L359.06 435.629L361.982 435.789Z" fill="#8CD5C2"/>
<path fill-rule="evenodd" clip-rule="evenodd" d="M412.797 433.494L411.204 486.475L408.27 486.386L409.863 433.406L412.797 433.494Z" fill="#ADF0DD"/>
<path fill-rule="evenodd" clip-rule="evenodd" d="M465.276 432.412L464.568 488.646L461.625 488.609L462.332 432.375L465.276 432.412Z" fill="#CDF6EA"/>
<path fill-rule="evenodd" clip-rule="evenodd" d="M519.503 432.09L519.356 489.769L516.406 489.762L516.554 432.082L519.503 432.09Z" fill="#E5FAF4"/>
<path fill-rule="evenodd" clip-rule="evenodd" d="M575.352 432.115V490.281H572.398V432.115H575.352Z" fill="#F5FDFB"/>
<path fill-rule="evenodd" clip-rule="evenodd" d="M689.172 432.115V490.281H686.219V432.115H689.172Z" fill="#F5FDFB"/>
<path fill-rule="evenodd" clip-rule="evenodd" d="M745.016 432.082L745.163 489.762L742.214 489.769L742.066 432.09L745.016 432.082Z" fill="#E5FAF4"/>
<path fill-rule="evenodd" clip-rule="evenodd" d="M799.236 432.375L799.944 488.609L797 488.646L796.293 432.412L799.236 432.375Z" fill="#CDF6EA"/>
<path fill-rule="evenodd" clip-rule="evenodd" d="M851.708 433.406L853.301 486.386L850.367 486.475L848.773 433.494L851.708 433.406Z" fill="#ADF0DD"/>
<path fill-rule="evenodd" clip-rule="evenodd" d="M902.512 435.629L905.095 482.679L902.173 482.84L899.59 435.789L902.512 435.629Z" fill="#8CD5C2"/>
<path fill-rule="evenodd" clip-rule="evenodd" d="M952.006 439.156L955.346 477.429L952.442 477.682L949.102 439.41L952.006 439.156Z" fill="#6AB1A1"/>
<path fill-rule="evenodd" clip-rule="evenodd" d="M1000.83 443.463L1004.36 471.291L1001.48 471.656L997.953 443.828L1000.83 443.463Z" fill="#509486"/>
<path fill-rule="evenodd" clip-rule="evenodd" d="M1049.68 447.482L1052.8 465.456L1049.95 465.95L1046.84 447.976L1049.68 447.482Z" fill="#428273"/>
<path fill-rule="evenodd" clip-rule="evenodd" d="M1099.08 450.355L1101.5 460.923L1098.69 461.563L1096.28 450.995L1099.08 450.355Z" fill="#387566"/>
<path fill-rule="evenodd" clip-rule="evenodd" d="M1149.39 451.893L1151.16 457.976L1148.42 458.776L1146.64 452.692L1149.39 451.893Z" fill="#336D5E"/>
<path fill-rule="evenodd" clip-rule="evenodd" d="M1200.78 452.432L1202.19 456.295L1199.52 457.268L1198.11 453.405L1200.78 452.432Z" fill="#30695A"/>
<path d="M66.8511 398.187C66.8511 398.64 66.6712 399.075 66.3508 399.395C66.0304 399.716 65.5959 399.896 65.1428 399.896C64.6897 399.896 64.2551 399.716 63.9345 399.396C63.614 399.076 63.4338 398.641 63.4336 398.188C63.4334 397.735 63.6131 397.3 63.9333 396.98C64.2535 396.659 64.688 396.479 65.1411 396.479C65.5942 396.478 66.0289 396.658 66.3496 396.978C66.6703 397.298 66.8507 397.732 66.8511 398.186" fill="#2F6859"/>
<path fill-rule="evenodd" clip-rule="evenodd" d="M119.788 396.858L118.637 400.807L115.887 400.006L117.037 396.057L119.788 396.858Z" fill="#30695A"/>
<path fill-rule="evenodd" clip-rule="evenodd" d="M171.331 396.008L169.922 402.178L167.113 401.537L168.522 395.367L171.331 396.008Z" fill="#336D5E"/>
<path fill-rule="evenodd" clip-rule="evenodd" d="M221.767 394.127L219.916 404.812L217.062 404.317L218.914 393.633L221.767 394.127Z" fill="#387566"/>
<path fill-rule="evenodd" clip-rule="evenodd" d="M271.295 390.896L269.007 408.993L266.121 408.628L268.409 390.531L271.295 390.896Z" fill="#428273"/>
<path fill-rule="evenodd" clip-rule="evenodd" d="M320.276 386.515L317.84 414.466L314.93 414.213L317.366 386.262L320.276 386.515Z" fill="#509486"/>
<path fill-rule="evenodd" clip-rule="evenodd" d="M369.303 381.88L367.193 420.239L364.266 420.077L366.376 381.719L369.303 381.88Z" fill="#6AB1A1"/>
<path fill-rule="evenodd" clip-rule="evenodd" d="M419.078 378.055L417.663 425.155L414.723 425.066L416.137 377.967L419.078 378.055Z" fill="#8CD5C2"/>
<path fill-rule="evenodd" clip-rule="evenodd" d="M470.215 375.586L469.551 428.584L466.602 428.547L467.266 375.549L470.215 375.586Z" fill="#ADF0DD"/>
<path fill-rule="evenodd" clip-rule="evenodd" d="M523.034 374.355L522.893 430.595L519.938 430.588L520.079 374.348L523.034 374.355Z" fill="#CDF6EA"/>
<path fill-rule="evenodd" clip-rule="evenodd" d="M577.592 373.932V431.611H574.633V373.932H577.592Z" fill="#E5FAF4"/>
<path fill-rule="evenodd" clip-rule="evenodd" d="M686.936 373.932V431.611H683.977V373.932H686.936Z" fill="#E5FAF4"/>
<path fill-rule="evenodd" clip-rule="evenodd" d="M741.491 374.348L741.632 430.588L738.677 430.595L738.535 374.355L741.491 374.348Z" fill="#CDF6EA"/>
<path fill-rule="evenodd" clip-rule="evenodd" d="M794.305 375.549L794.969 428.547L792.02 428.584L791.355 375.586L794.305 375.549Z" fill="#ADF0DD"/>
<path fill-rule="evenodd" clip-rule="evenodd" d="M845.433 377.967L846.847 425.066L843.907 425.155L842.492 378.055L845.433 377.967Z" fill="#8CD5C2"/>
<path fill-rule="evenodd" clip-rule="evenodd" d="M895.193 381.719L897.303 420.077L894.376 420.239L892.266 381.88L895.193 381.719Z" fill="#6AB1A1"/>
<path fill-rule="evenodd" clip-rule="evenodd" d="M944.203 386.262L946.639 414.213L943.729 414.466L941.293 386.515L944.203 386.262Z" fill="#509486"/>
<path fill-rule="evenodd" clip-rule="evenodd" d="M993.159 390.531L995.448 408.628L992.562 408.993L990.273 390.896L993.159 390.531Z" fill="#428273"/>
<path fill-rule="evenodd" clip-rule="evenodd" d="M1042.65 393.633L1044.51 404.317L1041.65 404.812L1039.8 394.127L1042.65 393.633Z" fill="#387566"/>
<path fill-rule="evenodd" clip-rule="evenodd" d="M1093.05 395.367L1094.46 401.537L1091.65 402.178L1090.24 396.008L1093.05 395.367Z" fill="#336D5E"/>
<path fill-rule="evenodd" clip-rule="evenodd" d="M1144.54 396.057L1145.69 400.006L1142.94 400.807L1141.79 396.858L1144.54 396.057Z" fill="#30695A"/>
<path d="M1198.14 398.187C1198.14 398.64 1197.96 399.075 1197.64 399.395C1197.32 399.716 1196.88 399.896 1196.43 399.896C1195.97 399.896 1195.54 399.716 1195.22 399.396C1194.9 399.076 1194.72 398.641 1194.72 398.188C1194.72 397.735 1194.9 397.3 1195.22 396.98C1195.54 396.659 1195.97 396.479 1196.43 396.479C1196.88 396.478 1197.31 396.658 1197.63 396.978C1197.96 397.298 1198.14 397.732 1198.14 398.186" fill="#2F6859"/>
<path d="M69.1095 341.781C69.1095 342.235 68.9293 342.67 68.6085 342.991C68.2877 343.312 67.8526 343.492 67.3989 343.492C66.9452 343.492 66.51 343.312 66.1891 342.992C65.8682 342.671 65.6877 342.236 65.6875 341.782C65.6873 341.328 65.8673 340.893 66.1879 340.572C66.5085 340.251 66.9435 340.071 67.3972 340.07C67.8509 340.07 68.2862 340.25 68.6073 340.57C68.9284 340.891 69.1091 341.326 69.1095 341.78" fill="#2F6859"/>
<path d="M123.185 341.866C123.185 342.322 123.004 342.76 122.681 343.083C122.358 343.406 121.92 343.587 121.464 343.587C121.007 343.587 120.57 343.406 120.247 343.083C119.924 342.761 119.742 342.323 119.742 341.867C119.742 341.41 119.923 340.972 120.246 340.649C120.568 340.326 121.006 340.145 121.462 340.145C121.919 340.144 122.357 340.325 122.68 340.648C123.003 340.97 123.184 341.408 123.185 341.864" fill="#2F6859"/>
<path fill-rule="evenodd" clip-rule="evenodd" d="M176.119 340.331L175.203 344.336L172.391 343.692L173.307 339.688L176.119 340.331Z" fill="#30695A"/>
<path fill-rule="evenodd" clip-rule="evenodd" d="M227.748 339.347L226.665 345.585L223.809 345.089L224.891 338.852L227.748 339.347Z" fill="#336D5E"/>
<path fill-rule="evenodd" clip-rule="evenodd" d="M278.281 337.295L276.921 348.047L274.031 347.682L275.391 336.93L278.281 337.295Z" fill="#387566"/>
<path fill-rule="evenodd" clip-rule="evenodd" d="M327.911 333.848L326.324 352.025L323.41 351.77L324.997 333.594L327.911 333.848Z" fill="#428273"/>
<path fill-rule="evenodd" clip-rule="evenodd" d="M377.038 329.246L375.494 357.258L372.562 357.096L374.106 329.084L377.038 329.246Z" fill="#509486"/>
<path fill-rule="evenodd" clip-rule="evenodd" d="M426.274 324.379L425.124 362.787L422.18 362.699L423.33 324.291L426.274 324.379Z" fill="#6AB1A1"/>
<path fill-rule="evenodd" clip-rule="evenodd" d="M476.342 320.351L475.757 367.469L472.805 367.432L473.389 320.314L476.342 320.351Z" fill="#8CD5C2"/>
<path fill-rule="evenodd" clip-rule="evenodd" d="M527.829 317.695L527.693 370.694L524.734 370.686L524.87 317.688L527.829 317.695Z" fill="#ADF0DD"/>
<path fill-rule="evenodd" clip-rule="evenodd" d="M581.01 316.314V372.555H578.047V316.314H581.01Z" fill="#CDF6EA"/>
<path fill-rule="evenodd" clip-rule="evenodd" d="M683.525 316.314V372.555H680.562V316.314H683.525Z" fill="#CDF6EA"/>
<path fill-rule="evenodd" clip-rule="evenodd" d="M736.697 317.688L736.833 370.686L733.874 370.694L733.738 317.695L736.697 317.688Z" fill="#ADF0DD"/>
<path fill-rule="evenodd" clip-rule="evenodd" d="M788.179 320.314L788.764 367.432L785.811 367.469L785.227 320.351L788.179 320.314Z" fill="#8CD5C2"/>
<path fill-rule="evenodd" clip-rule="evenodd" d="M838.241 324.291L839.391 362.699L836.447 362.787L835.297 324.379L838.241 324.291Z" fill="#6AB1A1"/>
<path fill-rule="evenodd" clip-rule="evenodd" d="M887.463 329.084L889.007 357.096L886.075 357.258L884.531 329.246L887.463 329.084Z" fill="#509486"/>
<path fill-rule="evenodd" clip-rule="evenodd" d="M936.57 333.594L938.157 351.77L935.243 352.025L933.656 333.848L936.57 333.594Z" fill="#428273"/>
<path fill-rule="evenodd" clip-rule="evenodd" d="M986.183 336.93L987.542 347.682L984.652 348.047L983.293 337.295L986.183 336.93Z" fill="#387566"/>
<path fill-rule="evenodd" clip-rule="evenodd" d="M1036.68 338.852L1037.76 345.089L1034.9 345.585L1033.82 339.347L1036.68 338.852Z" fill="#336D5E"/>
<path fill-rule="evenodd" clip-rule="evenodd" d="M1088.27 339.688L1089.18 343.692L1086.37 344.336L1085.45 340.331L1088.27 339.688Z" fill="#30695A"/>
<path d="M1141.83 341.866C1141.83 342.322 1141.65 342.76 1141.33 343.083C1141 343.406 1140.56 343.587 1140.11 343.587C1139.65 343.587 1139.21 343.406 1138.89 343.083C1138.57 342.761 1138.39 342.323 1138.39 341.867C1138.39 341.41 1138.57 340.972 1138.89 340.649C1139.21 340.326 1139.65 340.145 1140.11 340.145C1140.56 340.144 1141 340.325 1141.32 340.648C1141.65 340.97 1141.83 341.408 1141.83 341.864" fill="#2F6859"/>
<path d="M1195.88 341.781C1195.88 342.235 1195.7 342.67 1195.38 342.991C1195.06 343.312 1194.63 343.492 1194.17 343.492C1193.72 343.492 1193.28 343.312 1192.96 342.992C1192.64 342.671 1192.46 342.236 1192.46 341.782C1192.46 341.328 1192.64 340.893 1192.96 340.572C1193.28 340.251 1193.72 340.071 1194.17 340.07C1194.62 340.07 1195.06 340.25 1195.38 340.57C1195.7 340.891 1195.88 341.326 1195.88 341.78" fill="#2F6859"/>
<path d="M70.0531 285.503C70.0531 285.957 69.8728 286.393 69.5518 286.714C69.2308 287.035 68.7955 287.215 68.3415 287.215C67.8874 287.215 67.452 287.035 67.1308 286.714C66.8097 286.393 66.6291 285.958 66.6289 285.504C66.6287 285.05 66.8088 284.614 67.1296 284.293C67.4505 283.972 67.8857 283.791 68.3397 283.791C68.7937 283.791 69.2293 283.971 69.5506 284.291C69.8719 284.612 70.0527 285.047 70.0531 285.501" fill="#2F6859"/>
<path d="M125.386 285.515C125.386 285.972 125.205 286.41 124.882 286.733C124.559 287.056 124.121 287.238 123.664 287.238C123.208 287.238 122.769 287.057 122.446 286.734C122.123 286.411 121.942 285.973 121.941 285.516C121.941 285.06 122.122 284.621 122.445 284.298C122.768 283.975 123.206 283.793 123.663 283.793C124.119 283.793 124.558 283.974 124.881 284.296C125.204 284.619 125.386 285.057 125.386 285.514" fill="#2F6859"/>
<path d="M179.519 285.541C179.519 286 179.336 286.441 179.012 286.765C178.687 287.09 178.247 287.273 177.787 287.273C177.328 287.273 176.887 287.091 176.562 286.766C176.238 286.441 176.055 286.001 176.055 285.542C176.054 285.082 176.237 284.642 176.561 284.317C176.886 283.992 177.326 283.809 177.785 283.809C178.245 283.808 178.685 283.99 179.01 284.315C179.336 284.639 179.518 285.08 179.519 285.539" fill="#2F6859"/>
<path fill-rule="evenodd" clip-rule="evenodd" d="M232.455 283.814L231.753 287.861L228.895 287.366L229.596 283.318L232.455 283.814Z" fill="#30695A"/>
<path fill-rule="evenodd" clip-rule="evenodd" d="M284.183 282.702L283.384 288.982L280.492 288.614L281.292 282.334L284.183 282.702Z" fill="#336D5E"/>
<path fill-rule="evenodd" clip-rule="evenodd" d="M334.822 280.475L333.88 291.276L330.965 291.022L331.906 280.221L334.822 280.475Z" fill="#387566"/>
<path fill-rule="evenodd" clip-rule="evenodd" d="M384.58 276.831L383.577 295.045L380.645 294.884L381.647 276.67L384.58 276.831Z" fill="#428273"/>
<path fill-rule="evenodd" clip-rule="evenodd" d="M433.889 272.003L433.047 300.04L430.102 299.951L430.944 271.914L433.889 272.003Z" fill="#509486"/>
<path fill-rule="evenodd" clip-rule="evenodd" d="M483.383 266.908L482.903 305.328L479.949 305.291L480.429 266.871L483.383 266.908Z" fill="#6AB1A1"/>
<path fill-rule="evenodd" clip-rule="evenodd" d="M533.784 262.662L533.667 309.78L530.707 309.772L530.824 262.654L533.784 262.662Z" fill="#8CD5C2"/>
<path fill-rule="evenodd" clip-rule="evenodd" d="M585.636 259.816V312.821H582.672V259.816H585.636Z" fill="#ADF0DD"/>
<path fill-rule="evenodd" clip-rule="evenodd" d="M678.898 259.816V312.821H675.934V259.816H678.898Z" fill="#ADF0DD"/>
<path fill-rule="evenodd" clip-rule="evenodd" d="M730.745 262.654L730.862 309.772L727.902 309.78L727.785 262.662L730.745 262.654Z" fill="#8CD5C2"/>
<path fill-rule="evenodd" clip-rule="evenodd" d="M781.137 266.871L781.617 305.291L778.663 305.328L778.184 266.908L781.137 266.871Z" fill="#6AB1A1"/>
<path fill-rule="evenodd" clip-rule="evenodd" d="M830.629 271.914L831.471 299.951L828.526 300.04L827.684 272.003L830.629 271.914Z" fill="#509486"/>
<path fill-rule="evenodd" clip-rule="evenodd" d="M879.921 276.67L880.924 294.884L877.991 295.045L876.988 276.831L879.921 276.67Z" fill="#428273"/>
<path fill-rule="evenodd" clip-rule="evenodd" d="M929.666 280.221L930.607 291.022L927.691 291.276L926.75 280.475L929.666 280.221Z" fill="#387566"/>
<path fill-rule="evenodd" clip-rule="evenodd" d="M980.278 282.334L981.078 288.614L978.186 288.983L977.387 282.702L980.278 282.334Z" fill="#336D5E"/>
<path fill-rule="evenodd" clip-rule="evenodd" d="M1031.97 283.318L1032.67 287.366L1029.81 287.861L1029.11 283.814L1031.97 283.318Z" fill="#30695A"/>
<path d="M1085.51 285.541C1085.51 286 1085.33 286.441 1085.01 286.765C1084.68 287.09 1084.24 287.273 1083.78 287.273C1083.32 287.273 1082.88 287.091 1082.56 286.766C1082.23 286.441 1082.05 286.001 1082.05 285.542C1082.05 285.082 1082.23 284.642 1082.56 284.317C1082.88 283.992 1083.32 283.809 1083.78 283.809C1084.24 283.808 1084.68 283.99 1085.01 284.315C1085.33 284.639 1085.51 285.08 1085.51 285.539" fill="#2F6859"/>
<path d="M1139.63 285.515C1139.63 285.972 1139.45 286.41 1139.12 286.733C1138.8 287.056 1138.36 287.238 1137.91 287.238C1137.45 287.238 1137.01 287.057 1136.69 286.734C1136.37 286.411 1136.18 285.973 1136.18 285.516C1136.18 285.06 1136.36 284.621 1136.69 284.298C1137.01 283.975 1137.45 283.793 1137.9 283.793C1138.36 283.793 1138.8 283.974 1139.12 284.296C1139.45 284.619 1139.63 285.057 1139.63 285.514" fill="#2F6859"/>
<path d="M1194.94 285.503C1194.94 285.957 1194.76 286.393 1194.44 286.714C1194.12 287.035 1193.69 287.215 1193.23 287.215C1192.78 287.215 1192.34 287.035 1192.02 286.714C1191.7 286.393 1191.52 285.958 1191.52 285.504C1191.52 285.05 1191.7 284.614 1192.02 284.293C1192.34 283.972 1192.78 283.791 1193.23 283.791C1193.68 283.791 1194.12 283.971 1194.44 284.291C1194.76 284.612 1194.94 285.047 1194.94 285.501" fill="#2F6859"/>
<path d="M70.1 229.263C70.1 229.717 69.9197 230.152 69.5987 230.473C69.2777 230.794 68.8423 230.975 68.3883 230.975C67.9343 230.975 67.4989 230.795 67.1777 230.474C66.8566 230.153 66.676 229.718 66.6758 229.264C66.6756 228.81 66.8557 228.374 67.1765 228.053C67.4973 227.732 67.9326 227.551 68.3866 227.551C68.8406 227.55 69.2762 227.73 69.5975 228.051C69.9188 228.372 70.0996 228.807 70.1 229.261" fill="#2F6859"/>
<path d="M126.301 229.256C126.301 229.712 126.119 230.151 125.796 230.474C125.473 230.797 125.035 230.978 124.578 230.978C124.122 230.978 123.684 230.797 123.36 230.474C123.037 230.151 122.856 229.713 122.855 229.257C122.855 228.8 123.036 228.362 123.359 228.038C123.682 227.715 124.12 227.534 124.577 227.533C125.033 227.533 125.472 227.714 125.795 228.037C126.118 228.359 126.3 228.797 126.301 229.254" fill="#2F6859"/>
<path d="M181.66 229.244C181.66 229.703 181.477 230.144 181.152 230.468C180.828 230.793 180.387 230.976 179.928 230.976C179.469 230.976 179.028 230.794 178.703 230.469C178.378 230.144 178.196 229.704 178.195 229.245C178.195 228.785 178.377 228.345 178.702 228.02C179.026 227.695 179.467 227.512 179.926 227.512C180.385 227.511 180.826 227.693 181.151 228.018C181.476 228.342 181.659 228.783 181.66 229.242" fill="#2F6859"/>
<path d="M235.849 229.219C235.849 229.681 235.666 230.124 235.339 230.45C235.013 230.777 234.57 230.96 234.108 230.96C233.647 230.96 233.204 230.777 232.878 230.451C232.551 230.125 232.367 229.682 232.367 229.22C232.367 228.759 232.55 228.316 232.876 227.989C233.203 227.663 233.645 227.479 234.107 227.479C234.568 227.478 235.011 227.661 235.338 227.987C235.665 228.313 235.848 228.756 235.849 229.218" fill="#2F6859"/>
<path fill-rule="evenodd" clip-rule="evenodd" d="M288.799 227.312L288.282 231.39L285.391 231.024L285.907 226.945L288.799 227.312Z" fill="#30695A"/>
<path fill-rule="evenodd" clip-rule="evenodd" d="M340.627 226.073L340.079 232.378L337.164 232.125L337.712 225.82L340.627 226.073Z" fill="#336D5E"/>
<path fill-rule="evenodd" clip-rule="evenodd" d="M391.396 223.677L390.799 234.503L387.867 234.342L388.464 223.516L391.396 223.677Z" fill="#387566"/>
<path fill-rule="evenodd" clip-rule="evenodd" d="M441.312 219.829L440.765 238.067L437.82 237.978L438.368 219.74L441.312 219.829Z" fill="#428273"/>
<path fill-rule="evenodd" clip-rule="evenodd" d="M490.838 214.775L490.488 242.825L487.535 242.788L487.886 214.738L490.838 214.775Z" fill="#509486"/>
<path fill-rule="evenodd" clip-rule="evenodd" d="M540.635 209.453L540.537 247.873L537.578 247.866L537.677 209.445L540.635 209.453Z" fill="#6AB1A1"/>
<path fill-rule="evenodd" clip-rule="evenodd" d="M591.396 204.984V252.102H588.434V204.984H591.396Z" fill="#8CD5C2"/>
<path fill-rule="evenodd" clip-rule="evenodd" d="M673.135 204.984V252.102H670.172V204.984H673.135Z" fill="#8CD5C2"/>
<path fill-rule="evenodd" clip-rule="evenodd" d="M723.892 209.445L723.991 247.866L721.032 247.873L720.934 209.453L723.892 209.445Z" fill="#6AB1A1"/>
<path fill-rule="evenodd" clip-rule="evenodd" d="M773.683 214.738L774.034 242.788L771.081 242.825L770.73 214.775L773.683 214.738Z" fill="#509486"/>
<path fill-rule="evenodd" clip-rule="evenodd" d="M823.202 219.74L823.749 237.978L820.805 238.067L820.258 219.829L823.202 219.74Z" fill="#428273"/>
<path fill-rule="evenodd" clip-rule="evenodd" d="M873.108 223.516L873.705 234.342L870.772 234.503L870.176 223.677L873.108 223.516Z" fill="#387566"/>
<path fill-rule="evenodd" clip-rule="evenodd" d="M923.857 225.82L924.404 232.125L921.489 232.378L920.941 226.073L923.857 225.82Z" fill="#336D5E"/>
<path fill-rule="evenodd" clip-rule="evenodd" d="M975.665 226.945L976.182 231.024L973.29 231.39L972.773 227.312L975.665 226.945Z" fill="#30695A"/>
<path d="M1029.2 229.219C1029.2 229.681 1029.02 230.124 1028.69 230.45C1028.37 230.777 1027.93 230.96 1027.46 230.96C1027 230.96 1026.56 230.777 1026.23 230.451C1025.91 230.125 1025.72 229.682 1025.72 229.22C1025.72 228.759 1025.91 228.316 1026.23 227.989C1026.56 227.663 1027 227.479 1027.46 227.479C1027.92 227.478 1028.37 227.661 1028.69 227.987C1029.02 228.313 1029.2 228.756 1029.2 229.218" fill="#2F6859"/>
<path d="M1083.37 229.244C1083.37 229.703 1083.19 230.144 1082.87 230.468C1082.54 230.793 1082.1 230.976 1081.64 230.976C1081.18 230.976 1080.74 230.794 1080.42 230.469C1080.09 230.144 1079.91 229.704 1079.91 229.245C1079.91 228.785 1080.09 228.345 1080.42 228.02C1080.74 227.695 1081.18 227.512 1081.64 227.512C1082.1 227.511 1082.54 227.693 1082.87 228.018C1083.19 228.342 1083.37 228.783 1083.37 229.242" fill="#2F6859"/>
<path d="M1138.71 229.256C1138.71 229.712 1138.53 230.151 1138.21 230.474C1137.88 230.797 1137.45 230.978 1136.99 230.978C1136.53 230.978 1136.09 230.797 1135.77 230.474C1135.45 230.151 1135.27 229.713 1135.27 229.257C1135.27 228.8 1135.45 228.362 1135.77 228.038C1136.09 227.715 1136.53 227.534 1136.99 227.533C1137.44 227.533 1137.88 227.714 1138.21 228.037C1138.53 228.359 1138.71 228.797 1138.71 229.254" fill="#2F6859"/>
<path d="M1194.89 229.263C1194.89 229.717 1194.71 230.152 1194.39 230.473C1194.07 230.794 1193.64 230.975 1193.18 230.975C1192.73 230.975 1192.29 230.795 1191.97 230.474C1191.65 230.153 1191.47 229.718 1191.47 229.264C1191.47 228.81 1191.65 228.374 1191.97 228.053C1192.29 227.732 1192.73 227.551 1193.18 227.551C1193.63 227.55 1194.07 227.73 1194.39 228.051C1194.71 228.372 1194.89 228.807 1194.89 229.261" fill="#2F6859"/>
<path d="M70.1018 173.022C70.1018 173.475 69.9216 173.91 69.6008 174.231C69.28 174.552 68.8449 174.733 68.3912 174.733C67.9374 174.733 67.5022 174.553 67.1813 174.232C66.8603 173.911 66.6799 173.476 66.6797 173.022C66.6795 172.569 66.8595 172.134 67.1801 171.812C67.5007 171.491 67.9357 171.311 68.3894 171.311C68.8432 171.31 69.2785 171.49 69.5996 171.811C69.9207 172.131 70.1013 172.566 70.1018 173.02" fill="#2F6859"/>
<path d="M126.349 173.022C126.349 173.479 126.168 173.916 125.845 174.239C125.522 174.562 125.085 174.743 124.628 174.744C124.172 174.744 123.734 174.563 123.411 174.24C123.088 173.917 122.906 173.48 122.906 173.023C122.906 172.567 123.087 172.129 123.41 171.806C123.732 171.483 124.17 171.301 124.626 171.301C125.083 171.3 125.521 171.481 125.844 171.804C126.167 172.126 126.349 172.564 126.349 173.02" fill="#2F6859"/>
<path d="M182.552 173.016C182.552 173.475 182.37 173.915 182.045 174.24C181.72 174.565 181.28 174.747 180.821 174.747C180.362 174.747 179.922 174.565 179.597 174.241C179.273 173.916 179.09 173.476 179.09 173.017C179.09 172.558 179.272 172.118 179.596 171.793C179.92 171.468 180.361 171.286 180.82 171.285C181.279 171.285 181.719 171.467 182.044 171.791C182.369 172.115 182.551 172.555 182.552 173.014" fill="#2F6859"/>
<path d="M237.932 172.978C237.932 173.439 237.749 173.882 237.423 174.208C237.097 174.534 236.655 174.718 236.193 174.718C235.732 174.718 235.289 174.535 234.963 174.209C234.637 173.882 234.453 173.44 234.453 172.979C234.453 172.518 234.636 172.075 234.962 171.749C235.288 171.422 235.73 171.239 236.191 171.238C236.653 171.238 237.095 171.421 237.422 171.747C237.748 172.073 237.932 172.515 237.932 172.976" fill="#2F6859"/>
<path d="M292.182 172.892C292.182 173.355 291.998 173.8 291.671 174.128C291.343 174.455 290.899 174.639 290.435 174.64C289.972 174.64 289.528 174.456 289.2 174.128C288.872 173.801 288.688 173.356 288.688 172.893C288.687 172.43 288.871 171.985 289.199 171.657C289.526 171.329 289.97 171.145 290.434 171.145C290.897 171.144 291.342 171.328 291.67 171.655C291.998 171.983 292.182 172.427 292.182 172.89" fill="#2F6859"/>
<path fill-rule="evenodd" clip-rule="evenodd" d="M345.153 170.83L344.796 174.921L341.883 174.667L342.24 170.576L345.153 170.83Z" fill="#30695A"/>
<path fill-rule="evenodd" clip-rule="evenodd" d="M397.097 169.461L396.746 175.785L393.816 175.622L394.167 169.299L397.097 169.461Z" fill="#336D5E"/>
<path fill-rule="evenodd" clip-rule="evenodd" d="M447.999 166.901L447.68 177.734L444.738 177.647L445.058 166.814L447.999 166.901Z" fill="#387566"/>
<path fill-rule="evenodd" clip-rule="evenodd" d="M498.107 162.849L497.879 181.088L494.93 181.051L495.157 162.812L498.107 162.849Z" fill="#428273"/>
<path fill-rule="evenodd" clip-rule="evenodd" d="M547.894 157.57L547.826 185.619L544.871 185.612L544.939 157.562L547.894 157.57Z" fill="#509486"/>
<path fill-rule="evenodd" clip-rule="evenodd" d="M598.025 152.01V190.43H595.066V152.01H598.025Z" fill="#6AB1A1"/>
<path fill-rule="evenodd" clip-rule="evenodd" d="M666.502 152.01V190.43H663.543V152.01H666.502Z" fill="#6AB1A1"/>
<path fill-rule="evenodd" clip-rule="evenodd" d="M716.631 157.562L716.699 185.612L713.743 185.619L713.676 157.57L716.631 157.562Z" fill="#509486"/>
<path fill-rule="evenodd" clip-rule="evenodd" d="M766.41 162.812L766.638 181.051L763.689 181.088L763.461 162.849L766.41 162.812Z" fill="#428273"/>
<path fill-rule="evenodd" clip-rule="evenodd" d="M816.515 166.814L816.835 177.647L813.894 177.734L813.574 166.901L816.515 166.814Z" fill="#387566"/>
<path fill-rule="evenodd" clip-rule="evenodd" d="M867.402 169.299L867.753 175.622L864.823 175.785L864.473 169.461L867.402 169.299Z" fill="#336D5E"/>
<path fill-rule="evenodd" clip-rule="evenodd" d="M919.331 170.576L919.688 174.667L916.775 174.921L916.418 170.83L919.331 170.576Z" fill="#30695A"/>
<path d="M972.886 172.892C972.886 173.355 972.702 173.8 972.374 174.128C972.046 174.455 971.602 174.639 971.139 174.64C970.675 174.64 970.231 174.456 969.903 174.128C969.575 173.801 969.391 173.356 969.391 172.893C969.39 172.43 969.574 171.985 969.902 171.657C970.229 171.329 970.673 171.145 971.137 171.145C971.6 171.144 972.045 171.328 972.373 171.655C972.701 171.983 972.885 172.427 972.886 172.89" fill="#2F6859"/>
<path d="M1027.12 172.978C1027.12 173.439 1026.93 173.882 1026.61 174.208C1026.28 174.534 1025.84 174.718 1025.38 174.718C1024.92 174.718 1024.47 174.535 1024.15 174.209C1023.82 173.882 1023.64 173.44 1023.64 172.979C1023.64 172.518 1023.82 172.075 1024.15 171.749C1024.47 171.422 1024.91 171.239 1025.38 171.238C1025.84 171.238 1026.28 171.421 1026.61 171.747C1026.93 172.073 1027.12 172.515 1027.12 172.976" fill="#2F6859"/>
<path d="M1082.48 173.016C1082.48 173.475 1082.3 173.915 1081.97 174.24C1081.65 174.565 1081.21 174.747 1080.75 174.747C1080.29 174.747 1079.85 174.565 1079.53 174.241C1079.2 173.916 1079.02 173.476 1079.02 173.017C1079.02 172.558 1079.2 172.118 1079.53 171.793C1079.85 171.468 1080.29 171.286 1080.75 171.285C1081.21 171.285 1081.65 171.467 1081.97 171.791C1082.3 172.115 1082.48 172.555 1082.48 173.014" fill="#2F6859"/>
<path d="M1138.66 173.022C1138.66 173.479 1138.48 173.916 1138.16 174.239C1137.83 174.562 1137.4 174.743 1136.94 174.744C1136.48 174.744 1136.05 174.563 1135.72 174.24C1135.4 173.917 1135.22 173.48 1135.22 173.023C1135.22 172.567 1135.4 172.129 1135.72 171.806C1136.04 171.483 1136.48 171.301 1136.94 171.301C1137.4 171.3 1137.83 171.481 1138.16 171.804C1138.48 172.126 1138.66 172.564 1138.66 173.02" fill="#2F6859"/>
<path d="M1194.89 173.022C1194.89 173.475 1194.71 173.91 1194.39 174.231C1194.07 174.552 1193.63 174.733 1193.18 174.733C1192.73 174.733 1192.29 174.553 1191.97 174.232C1191.65 173.911 1191.47 173.476 1191.47 173.022C1191.47 172.569 1191.65 172.134 1191.97 171.812C1192.29 171.491 1192.72 171.311 1193.18 171.311C1193.63 171.31 1194.07 171.49 1194.39 171.811C1194.71 172.131 1194.89 172.566 1194.89 173.02" fill="#2F6859"/>
<path d="M70.0975 116.783C70.0975 117.236 69.9175 117.671 69.5971 117.991C69.2767 118.312 68.8422 118.492 68.389 118.492C67.9359 118.492 67.5012 118.312 67.1807 117.992C66.8601 117.672 66.6799 117.237 66.6797 116.784C66.6795 116.331 66.8592 115.896 67.1795 115.576C67.4997 115.255 67.9342 115.075 68.3873 115.074C68.8405 115.074 69.2752 115.254 69.5959 115.574C69.9166 115.894 70.097 116.328 70.0975 116.781" fill="#2F6859"/>
<path d="M126.349 116.784C126.349 117.24 126.167 117.677 125.845 117.999C125.523 118.322 125.086 118.503 124.63 118.503C124.174 118.503 123.737 118.322 123.414 118C123.092 117.678 122.91 117.24 122.91 116.785C122.91 116.329 123.091 115.891 123.413 115.569C123.735 115.246 124.172 115.065 124.628 115.064C125.084 115.064 125.521 115.245 125.844 115.567C126.167 115.889 126.348 116.326 126.349 116.782" fill="#2F6859"/>
<path d="M182.598 116.783C182.598 117.242 182.416 117.681 182.092 118.006C181.768 118.33 181.328 118.512 180.87 118.512C180.411 118.512 179.972 118.33 179.647 118.006C179.323 117.682 179.141 117.243 179.141 116.784C179.14 116.326 179.322 115.886 179.646 115.562C179.97 115.237 180.41 115.055 180.868 115.055C181.326 115.054 181.766 115.236 182.091 115.56C182.415 115.884 182.598 116.323 182.598 116.782" fill="#2F6859"/>
<path d="M238.799 116.776C238.799 117.237 238.616 117.679 238.29 118.005C237.964 118.331 237.523 118.514 237.062 118.514C236.601 118.514 236.159 118.331 235.834 118.005C235.508 117.68 235.324 117.238 235.324 116.777C235.324 116.317 235.507 115.875 235.832 115.549C236.158 115.223 236.6 115.039 237.06 115.039C237.521 115.039 237.963 115.221 238.289 115.547C238.615 115.872 238.798 116.314 238.799 116.775" fill="#2F6859"/>
<path d="M294.205 116.716C294.205 117.178 294.021 117.622 293.694 117.95C293.367 118.277 292.923 118.461 292.46 118.461C291.998 118.461 291.554 118.277 291.226 117.95C290.899 117.623 290.715 117.179 290.715 116.717C290.715 116.254 290.898 115.81 291.225 115.483C291.552 115.155 291.996 114.971 292.459 114.971C292.921 114.97 293.365 115.154 293.693 115.481C294.02 115.808 294.204 116.251 294.205 116.714" fill="#2F6859"/>
<path d="M348.511 116.572C348.511 117.037 348.327 117.482 347.998 117.811C347.67 118.139 347.225 118.324 346.76 118.324C346.296 118.324 345.85 118.14 345.521 117.811C345.193 117.483 345.008 117.038 345.008 116.573C345.008 116.108 345.192 115.663 345.52 115.334C345.848 115.006 346.294 114.821 346.758 114.82C347.223 114.82 347.668 115.004 347.997 115.332C348.326 115.661 348.511 116.106 348.511 116.57" fill="#2F6859"/>
<path fill-rule="evenodd" clip-rule="evenodd" d="M401.51 114.357L401.288 118.46L398.363 118.302L398.585 114.199L401.51 114.357Z" fill="#30695A"/>
<path fill-rule="evenodd" clip-rule="evenodd" d="M453.58 112.864L453.389 119.193L450.453 119.105L450.644 112.775L453.58 112.864Z" fill="#336D5E"/>
<path fill-rule="evenodd" clip-rule="evenodd" d="M504.646 110.134L504.51 120.973L501.566 120.936L501.702 110.098L504.646 110.134Z" fill="#387566"/>
<path fill-rule="evenodd" clip-rule="evenodd" d="M554.969 105.88L554.926 124.118L551.977 124.111L552.02 105.873L554.969 105.88Z" fill="#428273"/>
<path fill-rule="evenodd" clip-rule="evenodd" d="M605.05 100.371V128.42H602.098V100.371H605.05Z" fill="#509486"/>
<path fill-rule="evenodd" clip-rule="evenodd" d="M659.472 100.371V128.42H656.52V100.371H659.472Z" fill="#509486"/>
<path fill-rule="evenodd" clip-rule="evenodd" d="M709.551 105.873L709.594 124.111L706.645 124.118L706.602 105.88L709.551 105.873Z" fill="#428273"/>
<path fill-rule="evenodd" clip-rule="evenodd" d="M759.87 110.098L760.005 120.936L757.061 120.973L756.926 110.134L759.87 110.098Z" fill="#387566"/>
<path fill-rule="evenodd" clip-rule="evenodd" d="M810.924 112.775L811.115 119.105L808.179 119.193L807.988 112.864L810.924 112.775Z" fill="#336D5E"/>
<path fill-rule="evenodd" clip-rule="evenodd" d="M862.984 114.199L863.205 118.302L860.28 118.46L860.059 114.357L862.984 114.199Z" fill="#30695A"/>
<path d="M916.562 116.572C916.562 117.037 916.378 117.482 916.049 117.811C915.721 118.139 915.275 118.324 914.811 118.324C914.346 118.324 913.901 118.14 913.572 117.811C913.244 117.483 913.059 117.038 913.059 116.573C913.058 116.108 913.243 115.663 913.571 115.334C913.899 115.006 914.345 114.821 914.809 114.82C915.274 114.82 915.719 115.004 916.048 115.332C916.377 115.661 916.562 116.106 916.562 116.57" fill="#2F6859"/>
<path d="M970.857 116.716C970.857 117.178 970.673 117.622 970.346 117.95C970.019 118.277 969.575 118.461 969.113 118.461C968.65 118.461 968.206 118.277 967.879 117.95C967.551 117.623 967.367 117.179 967.367 116.717C967.367 116.254 967.55 115.81 967.877 115.483C968.204 115.155 968.648 114.971 969.111 114.971C969.574 114.97 970.018 115.154 970.345 115.481C970.673 115.808 970.857 116.251 970.857 116.714" fill="#2F6859"/>
<path d="M1026.25 116.776C1026.25 117.237 1026.07 117.679 1025.74 118.005C1025.41 118.331 1024.97 118.514 1024.51 118.514C1024.05 118.514 1023.61 118.331 1023.28 118.005C1022.96 117.68 1022.77 117.238 1022.77 116.777C1022.77 116.317 1022.96 115.875 1023.28 115.549C1023.61 115.223 1024.05 115.039 1024.51 115.039C1024.97 115.039 1025.41 115.221 1025.74 115.547C1026.06 115.872 1026.25 116.314 1026.25 116.775" fill="#2F6859"/>
<path d="M1082.43 116.783C1082.43 117.242 1082.25 117.681 1081.92 118.006C1081.6 118.33 1081.16 118.512 1080.7 118.512C1080.24 118.512 1079.8 118.33 1079.48 118.006C1079.16 117.682 1078.97 117.243 1078.97 116.784C1078.97 116.326 1079.15 115.886 1079.48 115.562C1079.8 115.237 1080.24 115.055 1080.7 115.055C1081.16 115.054 1081.6 115.236 1081.92 115.56C1082.25 115.884 1082.43 116.323 1082.43 116.782" fill="#2F6859"/>
<path d="M1138.66 116.784C1138.66 117.24 1138.48 117.677 1138.16 117.999C1137.84 118.322 1137.4 118.503 1136.94 118.503C1136.49 118.503 1136.05 118.322 1135.73 118C1135.4 117.678 1135.22 117.24 1135.22 116.785C1135.22 116.329 1135.4 115.891 1135.73 115.569C1136.05 115.246 1136.48 115.065 1136.94 115.064C1137.4 115.064 1137.83 115.245 1138.16 115.567C1138.48 115.889 1138.66 116.326 1138.66 116.782" fill="#2F6859"/>
<path d="M1194.89 116.783C1194.89 117.236 1194.71 117.671 1194.39 117.991C1194.07 118.312 1193.64 118.492 1193.18 118.492C1192.73 118.492 1192.29 118.312 1191.97 117.992C1191.65 117.672 1191.47 117.237 1191.47 116.784C1191.47 116.331 1191.65 115.896 1191.97 115.576C1192.29 115.255 1192.73 115.075 1193.18 115.074C1193.63 115.074 1194.07 115.254 1194.39 115.574C1194.71 115.894 1194.89 116.328 1194.89 116.781" fill="#2F6859"/>
<path d="M70.095 60.5417C70.095 60.994 69.9154 61.4278 69.5956 61.7476C69.2758 62.0675 68.842 62.2473 68.3897 62.2474C67.9374 62.2475 67.5036 62.0679 67.1836 61.7482C66.8637 61.4285 66.6838 60.9948 66.6836 60.5425C66.6834 60.0902 66.8628 59.6563 67.1824 59.3363C67.5021 59.0163 67.9357 58.8363 68.388 58.8359C68.8403 58.8356 69.2743 59.0149 69.5944 59.3345C69.9145 59.654 70.0946 60.0876 70.095 60.5399" fill="#2F6859"/>
<path d="M126.346 60.5421C126.346 60.9971 126.165 61.4335 125.843 61.7553C125.522 62.077 125.085 62.2579 124.63 62.258C124.175 62.2581 123.739 62.0775 123.417 61.7559C123.095 61.4343 122.914 60.998 122.914 60.5429C122.914 60.0879 123.094 59.6514 123.416 59.3295C123.737 59.0076 124.174 58.8265 124.629 58.8262C125.084 58.8258 125.52 59.0062 125.842 59.3277C126.164 59.6492 126.345 60.0854 126.346 60.5404" fill="#2F6859"/>
<path d="M182.595 60.5417C182.595 60.9992 182.413 61.438 182.09 61.7616C181.767 62.0851 181.328 62.2669 180.87 62.267C180.413 62.2672 179.974 62.0856 179.65 61.7622C179.327 61.4388 179.145 61.0001 179.145 60.5426C179.144 60.0851 179.326 59.6462 179.649 59.3225C179.972 58.9988 180.411 58.8167 180.869 58.8164C181.326 58.8161 181.765 58.9974 182.089 59.3207C182.413 59.6439 182.595 60.0825 182.595 60.54" fill="#2F6859"/>
<path d="M238.843 60.5425C238.843 61.0022 238.66 61.4432 238.335 61.7683C238.01 62.0935 237.569 62.2762 237.109 62.2763C236.65 62.2764 236.209 62.0939 235.883 61.7689C235.558 61.4439 235.375 61.0031 235.375 60.5433C235.375 60.0835 235.557 59.6425 235.882 59.3172C236.207 58.9919 236.648 58.8089 237.108 58.8086C237.567 58.8082 238.008 58.9905 238.334 59.3154C238.659 59.6402 238.842 60.0809 238.843 60.5407" fill="#2F6859"/>
<path d="M295.042 60.5364C295.042 60.9982 294.858 61.441 294.532 61.7676C294.205 62.0942 293.762 62.2777 293.3 62.2778C292.839 62.2779 292.396 62.0947 292.069 61.7682C291.742 61.4418 291.559 60.999 291.559 60.5372C291.558 60.0755 291.742 59.6325 292.068 59.3058C292.394 58.979 292.837 58.7953 293.299 58.7949C293.761 58.7946 294.204 58.9777 294.53 59.3039C294.857 59.6302 295.041 60.0728 295.042 60.5346" fill="#2F6859"/>
<path d="M350.473 60.4492C350.473 60.9128 350.289 61.3573 349.961 61.6852C349.633 62.013 349.189 62.1972 348.725 62.1973C348.262 62.1974 347.817 62.0134 347.489 61.6858C347.161 61.3581 346.977 60.9137 346.977 60.4501C346.976 59.9866 347.16 59.5419 347.488 59.2139C347.815 58.886 348.26 58.7015 348.723 58.7012C349.187 58.7008 349.632 58.8846 349.96 59.2121C350.288 59.5396 350.472 59.984 350.473 60.4475" fill="#2F6859"/>
<path d="M404.836 60.2459C404.836 60.7109 404.651 61.1569 404.322 61.4858C403.993 61.8147 403.547 61.9995 403.082 61.9996C402.617 61.9997 402.171 61.8151 401.842 61.4864C401.513 61.1577 401.328 60.7118 401.328 60.2468C401.328 59.7817 401.512 59.3356 401.841 59.0066C402.17 58.6776 402.615 58.4925 403.081 58.4922C403.546 58.4918 403.992 58.6762 404.321 59.0048C404.65 59.3333 404.835 59.7791 404.836 60.2441" fill="#2F6859"/>
<path fill-rule="evenodd" clip-rule="evenodd" d="M457.88 57.8983L457.757 62.0072L454.828 61.9195L454.951 57.8105L457.88 57.8983Z" fill="#30695A"/>
<path fill-rule="evenodd" clip-rule="evenodd" d="M510.079 56.2793L509.999 62.6089L507.062 62.5718L507.142 56.2422L510.079 56.2793Z" fill="#336D5E"/>
<path fill-rule="evenodd" clip-rule="evenodd" d="M561.328 53.3794L561.297 64.224L558.355 64.2156L558.386 53.3711L561.328 53.3794Z" fill="#387566"/>
<path fill-rule="evenodd" clip-rule="evenodd" d="M611.898 48.9219V67.1663H608.953V48.9219H611.898Z" fill="#428273"/>
<path fill-rule="evenodd" clip-rule="evenodd" d="M652.616 48.9219V67.1663H649.672V48.9219H652.616Z" fill="#428273"/>
<path fill-rule="evenodd" clip-rule="evenodd" d="M703.184 53.3711L703.214 64.2156L700.273 64.2239L700.242 53.3794L703.184 53.3711Z" fill="#387566"/>
<path fill-rule="evenodd" clip-rule="evenodd" d="M754.429 56.2422L754.509 62.5718L751.572 62.6089L751.492 56.2793L754.429 56.2422Z" fill="#336D5E"/>
<path fill-rule="evenodd" clip-rule="evenodd" d="M806.617 57.8105L806.74 61.9195L803.811 62.0073L803.688 57.8983L806.617 57.8105Z" fill="#30695A"/>
<path d="M860.242 60.2459C860.242 60.7109 860.057 61.1569 859.728 61.4858C859.399 61.8147 858.954 61.9995 858.488 61.9996C858.023 61.9997 857.577 61.8151 857.249 61.4864C856.92 61.1577 856.735 60.7118 856.734 60.2468C856.734 59.7817 856.919 59.3356 857.247 59.0066C857.576 58.6776 858.022 58.4925 858.487 58.4922C858.952 58.4918 859.398 58.6762 859.727 59.0048C860.056 59.3333 860.241 59.7791 860.242 60.2441" fill="#2F6859"/>
<path d="M914.594 60.4492C914.594 60.9128 914.41 61.3573 914.082 61.6852C913.754 62.013 913.31 62.1972 912.846 62.1973C912.383 62.1974 911.938 62.0134 911.61 61.6858C911.282 61.3581 911.098 60.9137 911.098 60.4501C911.097 59.9866 911.281 59.5419 911.609 59.2139C911.936 58.886 912.381 58.7015 912.844 58.7012C913.308 58.7008 913.753 58.8846 914.081 59.2121C914.409 59.5396 914.593 59.984 914.594 60.4475" fill="#2F6859"/>
<path d="M970.01 60.5364C970.01 60.9982 969.827 61.441 969.5 61.7676C969.174 62.0942 968.731 62.2777 968.269 62.2778C967.808 62.2779 967.365 62.0947 967.038 61.7682C966.711 61.4418 966.528 60.999 966.527 60.5372C966.527 60.0755 966.71 59.6325 967.037 59.3058C967.363 58.979 967.806 58.7953 968.267 58.7949C968.729 58.7946 969.172 58.9777 969.499 59.3039C969.826 59.6302 970.01 60.0728 970.01 60.5346" fill="#2F6859"/>
<path d="M1026.19 60.5425C1026.19 61.0022 1026.01 61.4432 1025.69 61.7683C1025.36 62.0935 1024.92 62.2762 1024.46 62.2763C1024 62.2764 1023.56 62.0939 1023.23 61.7689C1022.91 61.4439 1022.73 61.0031 1022.73 60.5433C1022.73 60.0835 1022.91 59.6425 1023.23 59.3172C1023.56 58.9919 1024 58.8089 1024.46 58.8086C1024.92 58.8082 1025.36 58.9905 1025.69 59.3154C1026.01 59.6402 1026.19 60.0809 1026.19 60.5407" fill="#2F6859"/>
<path d="M1082.43 60.5417C1082.43 60.9992 1082.25 61.438 1081.92 61.7616C1081.6 62.0851 1081.16 62.2669 1080.7 62.267C1080.24 62.2672 1079.81 62.0856 1079.48 61.7622C1079.16 61.4388 1078.98 61.0001 1078.98 60.5426C1078.98 60.0851 1079.16 59.6462 1079.48 59.3225C1079.8 58.9988 1080.24 58.8167 1080.7 58.8164C1081.16 58.8161 1081.6 58.9974 1081.92 59.3207C1082.24 59.6439 1082.43 60.0825 1082.43 60.54" fill="#2F6859"/>
<path d="M1138.66 60.5421C1138.66 60.9971 1138.48 61.4335 1138.16 61.7553C1137.83 62.077 1137.4 62.2579 1136.94 62.258C1136.49 62.2581 1136.05 62.0775 1135.73 61.7559C1135.41 61.4343 1135.23 60.998 1135.23 60.5429C1135.23 60.0879 1135.41 59.6514 1135.73 59.3295C1136.05 59.0076 1136.49 58.8265 1136.94 58.8262C1137.4 58.8258 1137.83 59.0062 1138.15 59.3277C1138.48 59.6492 1138.66 60.0854 1138.66 60.5404" fill="#2F6859"/>
<path d="M1194.89 60.5417C1194.89 60.994 1194.71 61.4278 1194.39 61.7476C1194.07 62.0675 1193.64 62.2473 1193.18 62.2474C1192.73 62.2475 1192.3 62.0679 1191.98 61.7482C1191.66 61.4285 1191.48 60.9948 1191.48 60.5425C1191.48 60.0902 1191.66 59.6563 1191.98 59.3363C1192.3 59.0163 1192.73 58.8363 1193.18 58.8359C1193.63 58.8356 1194.07 59.0149 1194.39 59.3345C1194.71 59.654 1194.89 60.0876 1194.89 60.5399" fill="#2F6859"/>
<path d="M70.0905 4.30113C70.0905 4.75232 69.9113 5.18504 69.5923 5.50413C69.2733 5.82321 68.8406 6.00253 68.3894 6.00264C67.9382 6.00275 67.5055 5.82365 67.1863 5.50473C66.8671 5.1858 66.6877 4.75317 66.6875 4.30197C66.6873 3.85078 66.8663 3.41797 67.1851 3.09872C67.504 2.77948 67.9365 2.59995 68.3877 2.59961C68.8389 2.59927 69.2718 2.77816 69.5911 3.09692C69.9104 3.41568 70.0901 3.84822 70.0905 4.29942" fill="#2F6859"/>
<path d="M126.341 4.30143C126.341 4.75529 126.161 5.19057 125.84 5.51154C125.519 5.83251 125.084 6.01289 124.63 6.013C124.176 6.01312 123.741 5.83296 123.42 5.51215C123.099 5.19134 122.918 4.75615 122.918 4.30228C122.918 3.84842 123.098 3.41304 123.419 3.09191C123.739 2.77078 124.174 2.59018 124.628 2.58984C125.082 2.5895 125.518 2.76945 125.839 3.0901C126.16 3.41075 126.341 3.84585 126.341 4.29971" fill="#2F6859"/>
<path d="M182.59 4.30289C182.59 4.75922 182.409 5.19686 182.086 5.51957C181.764 5.84228 181.326 6.02364 180.87 6.02375C180.413 6.02387 179.976 5.84273 179.653 5.52018C179.33 5.19763 179.149 4.76007 179.148 4.30375C179.148 3.84742 179.329 3.40969 179.652 3.08682C179.974 2.76394 180.412 2.58237 180.868 2.58203C181.324 2.58169 181.762 2.7626 182.085 3.08499C182.408 3.40738 182.59 3.84484 182.59 4.30117" fill="#2F6859"/>
<path d="M238.837 4.30155C238.837 4.76011 238.655 5.19988 238.331 5.52417C238.007 5.84846 237.567 6.0307 237.109 6.03082C236.65 6.03093 236.21 5.84891 235.886 5.52478C235.561 5.20065 235.379 4.76097 235.379 4.30241C235.379 3.84385 235.561 3.40398 235.885 3.07953C236.209 2.75507 236.648 2.57261 237.107 2.57227C237.565 2.57192 238.005 2.75372 238.33 3.07769C238.654 3.40166 238.837 3.84125 238.837 4.29981" fill="#2F6859"/>
<path d="M295.087 4.30122C295.087 4.76176 294.904 5.20344 294.578 5.52913C294.253 5.85483 293.811 6.03786 293.35 6.03797C292.89 6.03809 292.448 5.85527 292.122 5.52974C291.797 5.20421 291.614 4.76262 291.613 4.30208C291.613 3.84154 291.796 3.39976 292.121 3.0739C292.447 2.74805 292.888 2.5648 293.349 2.56445C293.809 2.56411 294.251 2.7467 294.577 3.07206C294.903 3.39743 295.086 3.83893 295.087 4.29947" fill="#2F6859"/>
<path d="M351.291 4.29597C351.291 4.75823 351.108 5.20157 350.781 5.52848C350.454 5.85539 350.011 6.0391 349.548 6.03922C349.086 6.03933 348.643 5.85584 348.316 5.52909C347.989 5.20235 347.805 4.75911 347.805 4.29685C347.804 3.83459 347.988 3.39116 348.315 3.06409C348.641 2.73701 349.084 2.55308 349.547 2.55273C350.009 2.55239 350.452 2.73566 350.78 3.06224C351.107 3.38882 351.291 3.83197 351.291 4.29423" fill="#2F6859"/>
<path d="M406.736 4.1862C406.736 4.64991 406.552 5.09463 406.224 5.42256C405.896 5.75049 405.451 5.93478 404.987 5.9349C404.524 5.93501 404.079 5.75094 403.751 5.42318C403.423 5.09541 403.239 4.65078 403.238 4.18707C403.238 3.72337 403.422 3.27855 403.75 2.95046C404.077 2.62236 404.522 2.43785 404.986 2.4375C405.449 2.43715 405.894 2.621 406.222 2.9486C406.551 3.27621 406.735 3.72074 406.736 4.18445" fill="#2F6859"/>
<path d="M461.159 3.92111C461.159 4.386 460.974 4.83185 460.645 5.16062C460.317 5.48938 459.871 5.67414 459.406 5.67426C458.941 5.67437 458.495 5.48984 458.166 5.16124C457.837 4.83264 457.653 4.38687 457.652 3.92199C457.652 3.4571 457.837 3.01116 458.165 2.68223C458.494 2.3533 458.939 2.16832 459.404 2.16797C459.869 2.16762 460.315 2.35193 460.644 2.68037C460.973 3.0088 461.158 3.45447 461.159 3.91936" fill="#2F6859"/>
<path fill-rule="evenodd" clip-rule="evenodd" d="M514.268 1.4476L514.213 5.56273L511.285 5.52334L511.341 1.4082L514.268 1.4476Z" fill="#30695A"/>
<path fill-rule="evenodd" clip-rule="evenodd" d="M566.607 -0.296132L566.588 6.03344L563.656 6.02488L563.675 -0.304688L566.607 -0.296132Z" fill="#336D5E"/>
<path fill-rule="evenodd" clip-rule="evenodd" d="M618.044 -3.35547V7.48291H615.109V-3.35547H618.044Z" fill="#387566"/>
<path fill-rule="evenodd" clip-rule="evenodd" d="M646.462 -3.35547V7.48291H643.527V-3.35547H646.462Z" fill="#387566"/>
<path fill-rule="evenodd" clip-rule="evenodd" d="M697.897 -0.304688L697.915 6.02488L694.983 6.03344L694.965 -0.296132L697.897 -0.304688Z" fill="#336D5E"/>
<path fill-rule="evenodd" clip-rule="evenodd" d="M750.228 1.4082L750.284 5.52334L747.356 5.56271L747.301 1.44757L750.228 1.4082Z" fill="#30695A"/>
<path d="M803.916 3.92111C803.916 4.386 803.732 4.83185 803.403 5.16062C803.074 5.48938 802.629 5.67414 802.164 5.67426C801.699 5.67437 801.253 5.48984 800.924 5.16124C800.595 4.83264 800.41 4.38687 800.41 3.92199C800.41 3.4571 800.594 3.01116 800.923 2.68223C801.251 2.3533 801.697 2.16832 802.162 2.16797C802.627 2.16762 803.073 2.35193 803.402 2.68037C803.731 3.0088 803.916 3.45447 803.916 3.91936" fill="#2F6859"/>
<path d="M858.329 4.1862C858.329 4.64991 858.145 5.09463 857.817 5.42256C857.49 5.75049 857.045 5.93478 856.581 5.9349C856.117 5.93501 855.673 5.75094 855.345 5.42318C855.017 5.09541 854.832 4.65078 854.832 4.18707C854.832 3.72337 855.016 3.27855 855.343 2.95046C855.671 2.62236 856.116 2.43785 856.579 2.4375C857.043 2.43715 857.488 2.621 857.816 2.9486C858.144 3.27621 858.329 3.72074 858.329 4.18445" fill="#2F6859"/>
<path d="M913.768 4.29597C913.768 4.75823 913.584 5.20157 913.257 5.52848C912.931 5.85539 912.487 6.0391 912.025 6.03922C911.563 6.03933 911.119 5.85584 910.792 5.52909C910.465 5.20235 910.281 4.75911 910.281 4.29685C910.281 3.83459 910.464 3.39116 910.791 3.06409C911.118 2.73701 911.561 2.55308 912.023 2.55273C912.485 2.55239 912.929 2.73566 913.256 3.06224C913.583 3.38882 913.767 3.83197 913.768 4.29423" fill="#2F6859"/>
<path d="M969.958 4.30122C969.958 4.76176 969.775 5.20344 969.449 5.52913C969.124 5.85483 968.682 6.03786 968.222 6.03797C967.761 6.03809 967.319 5.85527 966.993 5.52974C966.668 5.20421 966.485 4.76262 966.484 4.30208C966.484 3.84154 966.667 3.39976 966.992 3.0739C967.318 2.74805 967.759 2.5648 968.22 2.56445C968.68 2.56411 969.122 2.7467 969.448 3.07206C969.774 3.39743 969.957 3.83893 969.958 4.29947" fill="#2F6859"/>
<path d="M1026.19 4.30155C1026.19 4.76011 1026.01 5.19988 1025.68 5.52417C1025.36 5.84846 1024.92 6.0307 1024.46 6.03082C1024 6.03093 1023.56 5.84891 1023.24 5.52478C1022.91 5.20065 1022.73 4.76097 1022.73 4.30241C1022.73 3.84385 1022.91 3.40398 1023.24 3.07953C1023.56 2.75507 1024 2.57261 1024.46 2.57227C1024.92 2.57192 1025.36 2.75372 1025.68 3.07769C1026.01 3.40166 1026.19 3.84125 1026.19 4.29981" fill="#2F6859"/>
<path d="M1082.42 4.30289C1082.42 4.75922 1082.24 5.19686 1081.92 5.51957C1081.6 5.84228 1081.16 6.02364 1080.7 6.02375C1080.25 6.02387 1079.81 5.84273 1079.48 5.52018C1079.16 5.19763 1078.98 4.76007 1078.98 4.30375C1078.98 3.84742 1079.16 3.40969 1079.48 3.08682C1079.81 2.76394 1080.24 2.58237 1080.7 2.58203C1081.16 2.58169 1081.59 2.7626 1081.92 3.08499C1082.24 3.40738 1082.42 3.84484 1082.42 4.30117" fill="#2F6859"/>
<path d="M1138.65 4.30143C1138.65 4.75529 1138.47 5.19057 1138.15 5.51154C1137.83 5.83251 1137.4 6.01289 1136.94 6.013C1136.49 6.01312 1136.05 5.83296 1135.73 5.51215C1135.41 5.19134 1135.23 4.75615 1135.23 4.30228C1135.23 3.84842 1135.41 3.41304 1135.73 3.09191C1136.05 2.77078 1136.49 2.59018 1136.94 2.58984C1137.39 2.5895 1137.83 2.76945 1138.15 3.0901C1138.47 3.41075 1138.65 3.84585 1138.65 4.29971" fill="#2F6859"/>
<path d="M1194.88 4.30113C1194.88 4.75232 1194.7 5.18504 1194.39 5.50413C1194.07 5.82321 1193.63 6.00253 1193.18 6.00264C1192.73 6.00275 1192.3 5.82365 1191.98 5.50473C1191.66 5.1858 1191.48 4.75317 1191.48 4.30197C1191.48 3.85078 1191.66 3.41797 1191.98 3.09872C1192.3 2.77948 1192.73 2.59995 1193.18 2.59961C1193.63 2.59927 1194.06 2.77816 1194.38 3.09692C1194.7 3.41568 1194.88 3.84822 1194.88 4.29942" fill="#2F6859"/>
</g>
<defs>
<clipPath id="clip0_2077_32948">
<rect width="1260.07" height="674.999" fill="white" transform="translate(0.929688)"/>
</clipPath>
</defs>
</svg>
